<svg width="65" height="65" viewBox="0 0 65 65" fill="none" xmlns="http://www.w3.org/2000/svg">
<circle cx="32.5" cy="32.5" r="32.5" fill="#D8FF3C"/>
<path d="M23.2929 42.7071C23.6834 43.0976 24.3166 43.0976 24.7071 42.7071L31.0711 36.3431C31.4616 35.9526 31.4616 35.3195 31.0711 34.9289C30.6805 34.5384 30.0474 34.5384 29.6569 34.9289L24 40.5858L18.3431 34.9289C17.9526 34.5384 17.3195 34.5384 16.9289 34.9289C16.5384 35.3195 16.5384 35.9526 16.9289 36.3431L23.2929 42.7071ZM23 23L23 42L25 42L25 23L23 23Z" fill="black"/>
<path d="M42.7071 22.2929C42.3166 21.9024 41.6834 21.9024 41.2929 22.2929L34.9289 28.6569C34.5384 29.0474 34.5384 29.6805 34.9289 30.0711C35.3195 30.4616 35.9526 30.4616 36.3431 30.0711L42 24.4142L47.6569 30.0711C48.0474 30.4616 48.6805 30.4616 49.0711 30.0711C49.4616 29.6805 49.4616 29.0474 49.0711 28.6569L42.7071 22.2929ZM43 42L43 23L41 23L41 42L43 42Z" fill="black"/>
</svg>
