<svg width="52" height="52" viewBox="0 0 52 52" fill="none" xmlns="http://www.w3.org/2000/svg">
<g clip-path="url(#clip0_48_675)">
<path d="M51.2222 32.2875C47.7484 46.2235 33.6289 54.695 19.7128 51.221C5.77644 47.7471 -2.69509 33.6283 0.778957 19.7124C4.2528 5.77644 18.3517 -2.69509 32.2881 0.778958C46.2042 4.23249 54.6963 18.3513 51.2222 32.2875Z" fill="url(#paint0_linear_48_675)"/>
<path d="M38.3794 22.7602C38.8873 19.307 36.2669 17.4383 32.6513 16.1992L33.8294 11.507L30.9857 10.7961L29.8482 15.3664C29.0966 15.1836 28.3248 15.0008 27.5529 14.8383L28.6904 10.2477L25.8466 9.53672L24.6888 14.2086C24.0591 14.0664 23.4498 13.9242 22.8607 13.782V13.7617L18.9201 12.7867L18.1685 15.8336C18.1685 15.8336 20.281 16.3211 20.2404 16.3414C21.3982 16.6258 21.6013 17.3977 21.5607 18.007L20.2201 23.3492C20.3013 23.3695 20.4029 23.3898 20.5248 23.4508C20.4232 23.4305 20.3216 23.4102 20.2201 23.3695L18.3513 30.8445C18.2091 31.1898 17.8435 31.718 17.0513 31.5148C17.0716 31.5555 14.9794 31.007 14.9794 31.007L13.5576 34.2773L17.2748 35.2117C17.9654 35.3945 18.6357 35.557 19.306 35.7398L18.1279 40.4727L20.9716 41.1836L22.1498 36.4914C22.9216 36.6945 23.6935 36.8977 24.4248 37.0805L23.2669 41.7523L26.1107 42.4633L27.2888 37.7305C32.1638 38.6445 35.8201 38.2789 37.3435 33.8711C38.5826 30.3367 37.2826 28.2852 34.7232 26.9445C36.6123 26.518 38.0138 25.2789 38.3794 22.7602ZM31.8591 31.9008C30.9857 35.4352 25.0138 33.5258 23.0841 33.0383L24.6482 26.7617C26.5779 27.2492 32.7935 28.2039 31.8591 31.9008ZM32.7529 22.6992C31.9404 25.9289 26.9841 24.2836 25.3794 23.8773L26.8013 18.1898C28.406 18.5961 33.5857 19.3477 32.7529 22.6992Z" fill="white"/>
</g>
<defs>
<linearGradient id="paint0_linear_48_675" x1="25.9859" y1="-0.01248" x2="25.9859" y2="51.9947" gradientUnits="userSpaceOnUse">
<stop stop-color="#F9AA4B"/>
<stop offset="1" stop-color="#F7931A"/>
</linearGradient>
<clipPath id="clip0_48_675">
<rect width="52" height="52" fill="white"/>
</clipPath>
</defs>
</svg>
