<svg width="321" height="619" viewBox="0 0 321 619" fill="none" xmlns="http://www.w3.org/2000/svg">
<g opacity="0.2" clip-path="url(#clip0_48_39)">
<path d="M353.677 717.211C353.677 810.704 277.615 886.765 184.114 886.765C90.6121 886.765 14.5247 810.704 14.5247 717.211C14.5247 623.719 90.5858 547.614 184.079 547.614C277.572 547.614 353.677 623.71 353.677 717.211ZM18.6655 717.211C18.6655 808.45 92.8843 882.66 184.114 882.66C275.343 882.66 349.562 808.441 349.562 717.211C349.562 625.982 275.343 551.754 184.114 551.754C92.8843 551.754 18.6304 625.982 18.6304 717.211L18.6655 717.211Z" fill="#CED6DB"/>
<path d="M376.767 717.211C376.767 823.451 290.327 909.891 184.079 909.891C77.83 909.891 -8.60071 823.451 -8.60072 717.211C-8.60072 610.972 77.8387 524.523 184.079 524.523C290.319 524.523 376.767 610.963 376.767 717.211ZM6.81328 717.211C6.81328 814.95 86.3397 894.477 184.079 894.477C281.818 894.477 361.353 814.95 361.353 717.211C361.353 619.472 281.826 539.937 184.079 539.937C86.3309 539.937 6.81328 619.464 6.81328 717.211Z" fill="#CED6DB"/>
<path d="M411.911 717.211C411.911 842.831 309.707 945.026 184.079 945.026C58.4506 945.026 -43.7362 842.831 -43.7362 717.211C-43.7362 591.592 58.4681 489.388 184.087 489.388C309.707 489.388 411.911 591.583 411.911 717.211ZM-42.3062 717.211C-42.3062 842.041 59.249 943.552 184.079 943.552C308.908 943.552 410.472 842.041 410.472 717.211C410.472 592.382 308.935 490.818 184.079 490.818C59.2226 490.818 -42.3062 592.355 -42.3062 717.211Z" fill="#CED6DB"/>
<path d="M346.088 717.211C346.088 806.537 273.413 879.229 184.079 879.229C94.7441 879.229 22.0606 806.537 22.0606 717.211C22.0606 627.886 94.7354 555.202 184.061 555.202C273.387 555.202 346.088 627.877 346.088 717.211ZM23.5081 717.211C23.5081 805.748 95.5425 877.756 184.052 877.756C272.562 877.756 344.597 805.721 344.597 717.211C344.597 628.702 272.562 556.667 184.052 556.667C95.5425 556.667 23.5081 628.667 23.5081 717.211Z" fill="#CED6DB"/>
<path d="M199.397 581.695C124.564 573.248 57.0522 627.064 48.6055 701.897C40.1587 776.73 93.9753 844.242 168.808 852.688C243.641 861.135 311.152 807.318 319.599 732.486C328.046 657.653 274.229 590.141 199.397 581.695Z" fill="#CED6DB"/>
<path d="M184.623 839.944C160.346 839.946 136.614 832.749 116.428 819.262C96.2415 805.776 80.508 786.606 71.2169 764.178C61.9258 741.75 59.4943 717.07 64.2301 693.259C68.9658 669.449 80.656 647.577 97.8223 630.411C114.989 613.245 136.86 601.555 160.67 596.819C184.481 592.083 209.161 594.515 231.589 603.806C254.018 613.097 273.187 628.83 286.673 649.017C300.16 669.203 307.357 692.935 307.356 717.211C307.353 749.762 294.422 780.978 271.405 803.994C248.389 827.011 217.173 839.942 184.623 839.944Z" fill="#DFE6EA"/>
<path d="M187.592 622.141C135.087 620.207 90.9547 661.202 89.0203 713.707C87.0858 766.212 128.081 810.344 180.587 812.279C233.092 814.213 277.224 773.218 279.158 720.713C281.093 668.207 240.097 624.076 187.592 622.141Z" fill="#CED6DB"/>
<path d="M27.7191 552.395C28.5548 553.23 29.1239 554.295 29.3545 555.454C29.5851 556.613 29.4668 557.814 29.0147 558.906C28.5625 559.998 27.7968 560.931 26.8143 561.587C25.8318 562.244 24.6766 562.594 23.495 562.594C22.3133 562.594 21.1582 562.244 20.1757 561.587C19.1932 560.931 18.4275 559.998 17.9753 558.906C17.5232 557.814 17.4049 556.613 17.6355 555.454C17.8661 554.295 18.4352 553.23 19.2708 552.395C20.3912 551.275 21.9107 550.645 23.495 550.645C25.0793 550.645 26.5988 551.275 27.7191 552.395Z" fill="#CED6DB"/>
<path d="M318.356 565.449L320.964 567.797L330.884 556.779L328.277 554.431L318.356 565.449Z" fill="#CED6DB"/>
<path d="M312.955 560.86L315.644 563.115L325.17 551.754L322.482 549.499L312.955 560.86Z" fill="#CED6DB"/>
<path d="M307.484 556.448L310.249 558.608L319.377 546.925L316.612 544.765L307.484 556.448Z" fill="#CED6DB"/>
<path d="M301.791 552.242L304.63 554.304L313.343 542.308L310.504 540.246L301.791 552.242Z" fill="#CED6DB"/>
<path d="M295.941 548.229L298.85 550.191L307.139 537.898L304.229 535.936L295.941 548.229Z" fill="#CED6DB"/>
<path d="M289.99 544.43L292.966 546.289L300.82 533.715L297.844 531.856L289.99 544.43Z" fill="#CED6DB"/>
<path d="M283.895 540.837L286.935 542.591L294.346 529.75L291.306 527.996L283.895 540.837Z" fill="#CED6DB"/>
<path d="M277.623 537.491L280.721 539.139L287.681 526.048L284.583 524.4L277.623 537.491Z" fill="#CED6DB"/>
<path d="M271.299 534.325L274.453 535.863L280.947 522.544L277.792 521.007L271.299 534.325Z" fill="#CED6DB"/>
<path d="M264.902 531.375L268.108 532.802L274.136 519.256L270.93 517.83L264.902 531.375Z" fill="#CED6DB"/>
<path d="M258.396 528.648L261.65 529.963L267.206 516.217L263.953 514.902L258.396 528.648Z" fill="#CED6DB"/>
<path d="M251.768 526.171L255.066 527.371L260.137 513.439L256.839 512.239L251.768 526.171Z" fill="#CED6DB"/>
<path d="M245.785 523.813L249.119 524.901L253.715 510.816L250.381 509.728L245.785 523.813Z" fill="#CED6DB"/>
<path d="M238.268 521.927L241.642 522.895L245.728 508.643L242.355 507.675L238.268 521.927Z" fill="#CED6DB"/>
<path d="M231.379 520.181L234.784 521.03L238.368 506.653L234.963 505.804L231.379 520.181Z" fill="#CED6DB"/>
<path d="M224.468 518.665L227.9 519.395L230.981 504.901L227.548 504.171L224.468 518.665Z" fill="#CED6DB"/>
<path d="M217.562 517.323L221.018 517.933L223.592 503.332L220.136 502.722L217.562 517.323Z" fill="#CED6DB"/>
<path d="M210.537 516.308L214.012 516.797L216.075 502.115L212.6 501.626L210.537 516.308Z" fill="#CED6DB"/>
<path d="M203.497 515.51L206.987 515.877L208.536 501.14L205.046 500.774L203.497 515.51Z" fill="#CED6DB"/>
<path d="M196.477 514.92L199.978 515.165L201.012 500.384L197.511 500.139L196.477 514.92Z" fill="#CED6DB"/>
<path d="M188.016 516.62L191.525 516.725L191.97 501.899L188.46 501.794L188.016 516.62Z" fill="#CED6DB"/>
<path d="M182.324 499.749L182.324 514.575L185.833 514.575L185.833 499.749L182.324 499.749Z" fill="#CED6DB"/>
<path d="M174.733 499.944L175.25 514.761L178.757 514.638L178.24 499.821L174.733 499.944Z" fill="#CED6DB"/>
<path d="M167.148 500.405L168.187 515.194L171.687 514.948L170.648 500.159L167.148 500.405Z" fill="#CED6DB"/>
<path d="M159.606 501.125L161.159 515.869L164.649 515.502L163.096 500.757L159.606 501.125Z" fill="#CED6DB"/>
<path d="M152.083 502.113L154.146 516.795L157.621 516.307L155.558 501.625L152.083 502.113Z" fill="#CED6DB"/>
<path d="M144.578 503.36L147.155 517.961L150.611 517.351L148.034 502.75L144.578 503.36Z" fill="#CED6DB"/>
<path d="M137.12 504.861L140.205 519.363L143.638 518.633L140.553 504.131L137.12 504.861Z" fill="#CED6DB"/>
<path d="M129.789 506.632L133.376 521.018L136.781 520.169L133.194 505.783L129.789 506.632Z" fill="#CED6DB"/>
<path d="M122.426 508.657L126.512 522.909L129.885 521.941L125.799 507.69L122.426 508.657Z" fill="#CED6DB"/>
<path d="M115.228 510.938L119.809 525.039L123.147 523.954L118.565 509.854L115.228 510.938Z" fill="#CED6DB"/>
<path d="M108.022 513.465L113.095 527.396L116.392 526.195L111.319 512.264L108.022 513.465Z" fill="#CED6DB"/>
<path d="M100.972 516.244L106.529 529.989L109.782 528.674L104.226 514.928L100.972 516.244Z" fill="#CED6DB"/>
<path d="M94.0321 519.259L100.062 532.804L103.268 531.376L97.2379 517.832L94.0321 519.259Z" fill="#CED6DB"/>
<path d="M87.1931 522.535L93.6887 535.853L96.8427 534.315L90.3471 520.997L87.1931 522.535Z" fill="#CED6DB"/>
<path d="M80.4027 526.039L87.3654 539.128L90.4635 537.48L83.5008 524.391L80.4027 526.039Z" fill="#CED6DB"/>
<path d="M73.862 529.753L81.2728 542.594L84.3122 540.84L76.9013 527.999L73.862 529.753Z" fill="#CED6DB"/>
<path d="M67.5697 532.895L75.4276 545.498L78.4104 543.638L70.5525 531.036L67.5697 532.895Z" fill="#CED6DB"/>
<path d="M61.0591 537.899L69.3498 550.191L72.259 548.229L63.9683 535.937L61.0591 537.899Z" fill="#CED6DB"/>
<path d="M54.8669 542.305L63.5815 554.3L66.4205 552.238L57.7059 540.243L54.8669 542.305Z" fill="#CED6DB"/>
<path d="M48.8108 546.938L57.9387 558.621L60.704 556.46L51.5761 544.777L48.8108 546.938Z" fill="#CED6DB"/>
<path d="M42.9535 551.762L52.4836 563.12L55.1718 560.864L45.6417 549.507L42.9535 551.762Z" fill="#CED6DB"/>
<path d="M37.2846 556.775L47.2053 567.793L49.8131 565.445L39.8924 554.426L37.2846 556.775Z" fill="#CED6DB"/>
<path d="M31.761 562.004L42.0601 572.669L44.5844 570.232L34.2852 559.567L31.761 562.004Z" fill="#CED6DB"/>
<path d="M26.4238 567.425L37.0925 577.721L39.5293 575.195L28.8606 564.9L26.4238 567.425Z" fill="#CED6DB"/>
<path d="M21.2857 573.018L32.3072 582.935L34.6544 580.326L23.6329 570.409L21.2857 573.018Z" fill="#CED6DB"/>
<path d="M16.3826 578.771L27.7418 588.299L29.9969 585.611L18.6377 576.082L16.3826 578.771Z" fill="#CED6DB"/>
<path d="M11.6389 584.724L23.3221 593.852L25.4826 591.087L13.7994 581.959L11.6389 584.724Z" fill="#CED6DB"/>
<path d="M7.10667 590.826L19.1013 599.54L21.164 596.701L9.1693 587.987L7.10667 590.826Z" fill="#CED6DB"/>
<path d="M2.81191 597.077L15.1049 605.365L17.0666 602.456L4.7737 594.167L2.81191 597.077Z" fill="#CED6DB"/>
<path d="M-1.26443 603.467L11.3103 611.321L13.1694 608.345L0.594625 600.49L-1.26443 603.467Z" fill="#CED6DB"/>
<path d="M-5.13828 610.034L7.70288 617.445L9.45693 614.406L-3.38423 606.995L-5.13828 610.034Z" fill="#CED6DB"/>
<path d="M-8.75964 616.696L4.33356 623.652L5.97993 620.553L-7.11327 613.597L-8.75964 616.696Z" fill="#CED6DB"/>
<path d="M264.509 95.2562L264.509 100.748L255.92 109.021L255.92 103.538L264.509 95.2562Z" fill="#B0B5B7"/>
<path d="M264.509 84.9218L264.509 90.4048L255.92 98.6864L255.92 93.1946L264.509 84.9218Z" fill="#B0B5B7"/>
<path d="M264.509 74.5784L264.509 80.0703L255.92 88.3431L255.92 82.8601L264.509 74.5784Z" fill="#B0B5B7"/>
<path d="M264.509 64.244L264.509 69.7271L255.92 78.0087L255.92 72.5256L264.509 64.244Z" fill="#B0B5B7"/>
<path d="M264.509 53.9095L264.509 59.3925L255.92 67.6654L255.92 62.1823L264.509 53.9095Z" fill="#B0B5B7"/>
<path d="M264.509 43.5662L264.509 49.0493L255.92 57.331L255.92 51.8479L264.509 43.5662Z" fill="#B0B5B7"/>
<path d="M264.509 33.2318L264.509 38.7149L255.92 46.9877L255.92 41.5046L264.509 33.2318Z" fill="#B0B5B7"/>
<path d="M264.509 22.8885L264.509 28.3715L255.92 36.6531L255.92 31.1701L264.509 22.8885Z" fill="#B0B5B7"/>
<path d="M176.306 21.8271L176.306 212.489L126.985 261.801L126.985 371.024L74.7857 423.223L74.7857 496.292C74.7857 496.408 74.7395 496.52 74.6573 496.602C74.575 496.685 74.4634 496.731 74.3471 496.731C74.2308 496.731 74.1192 496.685 74.0369 496.602C73.9547 496.52 73.9084 496.408 73.9084 496.292L73.9084 422.863L126.107 370.664L126.107 261.441L175.429 212.12L175.429 21.8271C175.431 21.7114 175.478 21.6012 175.559 21.5194C175.641 21.4376 175.752 21.3907 175.867 21.3884C175.983 21.3884 176.095 21.4345 176.177 21.5168C176.26 21.5991 176.306 21.7107 176.306 21.8271Z" fill="#CED6DB"/>
<path d="M129.801 409.993L129.801 627.158C129.801 627.274 129.754 627.386 129.672 627.468C129.59 627.55 129.478 627.596 129.362 627.596C129.246 627.596 129.134 627.55 129.052 627.468C128.97 627.386 128.923 627.274 128.923 627.158L128.923 410.353L66.8901 348.32L66.8901 268.372L113.009 222.253L113.009 174.072L-5.54779 55.5238C-5.62872 55.4403 -5.67398 55.3286 -5.67398 55.2123C-5.67398 55.096 -5.62872 54.9843 -5.54779 54.9009C-5.50701 54.8597 -5.4585 54.8271 -5.40504 54.8049C-5.35159 54.7827 -5.29426 54.7712 -5.23635 54.7712C-5.17844 54.7712 -5.12111 54.7827 -5.06766 54.8049C-5.0142 54.8271 -4.96569 54.8597 -4.92491 54.9009L113.887 173.712L113.887 222.613L67.7674 268.732L67.7674 347.96L129.801 409.993Z" fill="#B0B5B7"/>
<path d="M270.036 21.827L270.036 187.635L144.408 313.263L144.408 396.334L91.4631 449.287L91.4631 601.128C91.4631 601.361 91.3706 601.584 91.2061 601.749C91.0416 601.913 90.8185 602.006 90.5858 602.006C90.3531 602.006 90.13 601.913 89.9654 601.749C89.8009 601.584 89.7085 601.361 89.7085 601.128L89.7085 448.559L142.653 395.614L142.653 312.579L268.281 186.951L268.281 21.827C268.281 21.5944 268.373 21.3712 268.538 21.2067C268.702 21.0421 268.926 20.9498 269.158 20.9498C269.391 20.9498 269.614 21.0421 269.779 21.2067C269.943 21.3712 270.036 21.5944 270.036 21.827Z" fill="#B0B5B7"/>
<path d="M244.699 187.24L244.699 326.729L144.53 426.881L144.53 567.791C144.53 567.908 144.484 568.019 144.402 568.101C144.32 568.184 144.208 568.23 144.092 568.23C143.975 568.23 143.864 568.184 143.782 568.101C143.699 568.019 143.653 567.908 143.653 567.791L143.653 426.548L243.822 326.361L243.822 187.609L146.443 90.2294L146.443 0.421142C146.445 0.305481 146.492 0.195251 146.574 0.113464C146.656 0.0316771 146.766 -0.0152589 146.881 -0.0175172C146.998 -0.0175172 147.109 0.0287474 147.192 0.110962C147.274 0.193237 147.32 0.304809 147.32 0.421142L147.32 89.9048L244.699 187.24Z" fill="#B0B5B7"/>
<path d="M111.053 483.098L111.053 535.735C111.053 535.851 111.007 535.963 110.924 536.045C110.842 536.128 110.731 536.174 110.614 536.174C110.498 536.174 110.386 536.128 110.304 536.045C110.222 535.963 110.176 535.851 110.176 535.735L110.176 483.431L54.9064 428.162L54.9064 334.546L93.0685 296.384L93.0685 205.067L-7.7673 104.24C-7.80842 104.199 -7.84105 104.15 -7.86332 104.097C-7.88559 104.044 -7.89705 103.986 -7.89705 103.928C-7.89705 103.87 -7.88559 103.813 -7.86332 103.76C-7.84105 103.706 -7.80842 103.658 -7.7673 103.617C-7.68383 103.536 -7.57213 103.491 -7.45586 103.491C-7.3396 103.491 -7.2279 103.536 -7.14443 103.617L93.9458 204.707L93.9458 296.709L55.7837 334.871L55.7837 427.828L111.053 483.098Z" fill="#CED6DB"/>
<path d="M294.968 163.185L294.968 227.56L188.246 334.292L188.246 468.657L156.497 500.398L156.497 631.834C156.497 631.95 156.45 632.061 156.368 632.144C156.286 632.226 156.174 632.272 156.058 632.272C155.942 632.272 155.83 632.226 155.748 632.144C155.666 632.061 155.619 631.95 155.619 631.834L155.619 500.064L187.368 468.315L187.368 333.923L294.091 227.201L294.091 163.545L227.417 96.8705L227.417 21.8183C227.417 21.7019 227.463 21.5903 227.545 21.508C227.627 21.4258 227.739 21.3796 227.855 21.3796C227.972 21.3796 228.083 21.4258 228.166 21.508C228.248 21.5903 228.294 21.7019 228.294 21.8183L228.294 96.5195L294.968 163.185Z" fill="#B0B5B7"/>
<path d="M59.4332 495.204L59.4332 564.282C59.4332 564.515 59.3408 564.738 59.1763 564.902C59.0117 565.067 58.7886 565.159 58.5559 565.159C58.3232 565.159 58.1001 565.067 57.9356 564.902C57.7711 564.738 57.6786 564.515 57.6786 564.282L57.6786 495.932L18.4988 456.744L18.4988 307.017L-11.0396 277.487C-11.2048 277.322 -11.2976 277.098 -11.2976 276.864C-11.2976 276.631 -11.2048 276.406 -11.0396 276.241C-10.8744 276.076 -10.6503 275.983 -10.4167 275.983C-10.1831 275.983 -9.959 276.076 -9.79381 276.241L20.2534 306.288L20.2534 456.016L59.4332 495.204Z" fill="#B0B5B7"/>
<path d="M212.819 708.456C212.818 708.686 212.726 708.907 212.564 709.07C212.483 709.152 212.386 709.218 212.279 709.262C212.172 709.307 212.057 709.33 211.941 709.33C211.826 709.33 211.711 709.307 211.604 709.262C211.497 709.218 211.4 709.152 211.319 709.07L163.866 661.618L163.866 511.794L205.169 470.491L205.169 395.702C205.169 395.469 205.261 395.246 205.426 395.082C205.59 394.917 205.813 394.825 206.046 394.825C206.279 394.825 206.502 394.917 206.666 395.082C206.831 395.246 206.923 395.469 206.923 395.702L206.923 471.219L165.62 512.522L165.62 660.889L212.564 707.833C212.646 707.915 212.71 708.012 212.754 708.119C212.797 708.226 212.819 708.341 212.819 708.456Z" fill="#B0B5B7"/>
<path d="M74.7857 522.611L74.7857 587.276L39.1853 622.876L39.1853 708.456C39.1853 708.572 39.1391 708.684 39.0568 708.766C38.9745 708.849 38.863 708.895 38.7466 708.895C38.6303 708.895 38.5187 708.849 38.4365 708.766C38.3542 708.684 38.308 708.572 38.308 708.456L38.308 622.482L73.9084 586.916L73.9084 522.611C73.9107 522.495 73.9576 522.385 74.0394 522.303C74.1212 522.221 74.2315 522.174 74.3471 522.172C74.4634 522.172 74.575 522.218 74.6572 522.301C74.7395 522.383 74.7857 522.495 74.7857 522.611Z" fill="#B0B5B7"/>
<path d="M111.053 564.282L111.053 611.84L64.6267 658.266L64.6267 716.053C64.6267 716.17 64.5805 716.281 64.4983 716.364C64.416 716.446 64.3044 716.492 64.1881 716.492C64.0718 716.492 63.9602 716.446 63.8779 716.364C63.7957 716.281 63.7495 716.17 63.7495 716.053L63.7494 657.898L110.176 611.48L110.176 564.282C110.176 564.166 110.222 564.054 110.304 563.972C110.386 563.89 110.498 563.843 110.614 563.843C110.73 563.846 110.84 563.893 110.922 563.974C111.004 564.056 111.051 564.167 111.053 564.282Z" fill="#B0B5B7"/>
<path d="M144.969 141.261L144.969 202.619C144.969 202.852 144.877 203.075 144.712 203.239C144.548 203.404 144.324 203.496 144.092 203.496C143.859 203.496 143.636 203.404 143.471 203.239C143.307 203.075 143.214 202.852 143.214 202.619L143.214 141.99L91.4543 90.2294L91.4543 63.2878C91.4543 63.0551 91.5467 62.832 91.7112 62.6675C91.8758 62.5029 92.0989 62.4105 92.3316 62.4105C92.5642 62.4105 92.7874 62.5029 92.9519 62.6675C93.1164 62.832 93.2089 63.0551 93.2089 63.2878L93.2089 89.475L144.969 141.261Z" fill="#B0B5B7"/>
<path d="M300.741 163.36C300.741 164.589 300.376 165.79 299.694 166.811C299.011 167.832 298.041 168.629 296.906 169.099C295.771 169.569 294.523 169.692 293.318 169.452C292.113 169.213 291.006 168.621 290.138 167.752C289.269 166.884 288.677 165.777 288.438 164.572C288.198 163.367 288.321 162.118 288.791 160.983C289.261 159.848 290.057 158.878 291.079 158.196C292.1 157.513 293.301 157.149 294.53 157.149C296.175 157.154 297.753 157.81 298.916 158.973C300.08 160.137 300.736 161.714 300.741 163.36ZM289.196 163.36C289.196 164.415 289.508 165.447 290.095 166.324C290.681 167.201 291.514 167.884 292.488 168.288C293.463 168.692 294.535 168.798 295.57 168.592C296.605 168.386 297.555 167.878 298.301 167.132C299.047 166.386 299.555 165.436 299.761 164.401C299.967 163.366 299.861 162.294 299.457 161.319C299.054 160.344 298.37 159.511 297.493 158.925C296.616 158.339 295.584 158.026 294.53 158.026C293.116 158.029 291.76 158.591 290.76 159.591C289.761 160.591 289.198 161.946 289.196 163.36Z" fill="#CED6DB"/>
<path d="M298.574 163.36C298.574 161.127 296.763 159.316 294.529 159.316C292.296 159.316 290.485 161.127 290.485 163.36C290.485 165.594 292.296 167.405 294.529 167.405C296.763 167.405 298.574 165.594 298.574 163.36Z" fill="#CED6DB"/>
<path d="M182.078 212.489C182.078 213.717 181.714 214.918 181.032 215.939C180.349 216.961 179.379 217.757 178.244 218.227C177.109 218.697 175.86 218.82 174.655 218.58C173.451 218.341 172.344 217.749 171.475 216.881C170.607 216.012 170.015 214.905 169.775 213.7C169.536 212.495 169.659 211.247 170.129 210.112C170.599 208.977 171.395 208.007 172.416 207.324C173.438 206.642 174.639 206.277 175.867 206.277C177.514 206.277 179.094 206.932 180.259 208.097C181.424 209.261 182.078 210.841 182.078 212.489ZM170.533 212.489C170.533 213.544 170.846 214.575 171.432 215.452C172.018 216.329 172.851 217.013 173.826 217.416C174.801 217.82 175.873 217.926 176.908 217.72C177.942 217.514 178.893 217.006 179.639 216.26C180.385 215.514 180.893 214.564 181.099 213.529C181.304 212.495 181.199 211.422 180.795 210.447C180.391 209.473 179.708 208.64 178.831 208.054C177.953 207.467 176.922 207.155 175.867 207.155C175.167 207.155 174.473 207.293 173.826 207.561C173.179 207.829 172.591 208.222 172.096 208.717C171.6 209.212 171.207 209.8 170.939 210.447C170.671 211.095 170.533 211.788 170.533 212.489Z" fill="#CED6DB"/>
<path d="M179.911 212.453C179.911 210.22 178.101 208.409 175.867 208.409C173.634 208.409 171.823 210.22 171.823 212.453C171.823 214.687 173.634 216.498 175.867 216.498C178.101 216.498 179.911 214.687 179.911 212.453Z" fill="#CED6DB"/>
<path d="M150.312 208.909C150.313 210.14 149.95 211.343 149.268 212.367C148.585 213.391 147.614 214.19 146.478 214.662C145.342 215.134 144.091 215.259 142.884 215.02C141.676 214.781 140.567 214.189 139.697 213.319C138.826 212.45 138.233 211.342 137.992 210.135C137.751 208.928 137.874 207.677 138.344 206.54C138.815 205.403 139.612 204.431 140.635 203.747C141.658 203.063 142.861 202.698 144.092 202.698C145.74 202.698 147.321 203.352 148.487 204.517C149.653 205.681 150.309 207.261 150.312 208.909ZM138.758 208.909C138.756 209.967 139.068 211.001 139.655 211.881C140.241 212.761 141.075 213.447 142.052 213.852C143.028 214.258 144.103 214.364 145.141 214.158C146.178 213.953 147.131 213.444 147.878 212.696C148.626 211.948 149.135 210.995 149.341 209.958C149.547 208.921 149.44 207.846 149.035 206.869C148.629 205.893 147.943 205.058 147.063 204.472C146.183 203.886 145.149 203.574 144.092 203.575C143.39 203.573 142.694 203.709 142.045 203.976C141.396 204.243 140.806 204.636 140.309 205.131C139.812 205.627 139.417 206.216 139.148 206.864C138.879 207.512 138.74 208.207 138.74 208.909L138.758 208.909Z" fill="#CED6DB"/>
<path d="M148.136 208.909C148.136 206.676 146.325 204.865 144.092 204.865C141.858 204.865 140.047 206.676 140.047 208.909C140.047 211.143 141.858 212.954 144.092 212.954C146.325 212.954 148.136 211.143 148.136 208.909Z" fill="#CED6DB"/>
<path d="M144.092 273.671C144.892 273.671 145.674 273.908 146.339 274.352C147.004 274.797 147.522 275.428 147.828 276.167C148.134 276.906 148.214 277.72 148.058 278.504C147.902 279.289 147.517 280.009 146.951 280.575C146.386 281.14 145.665 281.526 144.881 281.682C144.096 281.838 143.283 281.758 142.544 281.452C141.805 281.145 141.173 280.627 140.729 279.962C140.285 279.297 140.047 278.515 140.047 277.715C140.047 276.643 140.474 275.614 141.232 274.855C141.99 274.097 143.019 273.671 144.092 273.671Z" fill="#CED6DB"/>
<path d="M212.45 64.823C212.45 62.5894 210.64 60.7787 208.406 60.7787C206.172 60.7787 204.362 62.5894 204.362 64.823C204.362 67.0566 206.172 68.8673 208.406 68.8673C210.64 68.8673 212.45 67.0566 212.45 64.823Z" fill="#CED6DB"/>
<path d="M74.0576 322.957C74.0593 324.188 73.696 325.391 73.0136 326.415C72.3312 327.439 71.3604 328.238 70.224 328.71C69.0876 329.182 67.8367 329.306 66.6295 329.067C65.4224 328.828 64.3133 328.237 63.4425 327.367C62.5718 326.498 61.9785 325.389 61.7378 324.182C61.4971 322.976 61.6197 321.725 62.0902 320.588C62.5608 319.45 63.358 318.479 64.3811 317.795C65.4041 317.111 66.607 316.746 67.8376 316.746C69.4857 316.746 71.0665 317.4 72.2327 318.564C73.3989 319.729 74.0553 321.309 74.0576 322.957ZM62.5037 322.957C62.5019 324.014 62.814 325.049 63.4004 325.929C63.9868 326.809 64.8211 327.495 65.7977 327.9C66.7744 328.306 67.8493 328.412 68.8865 328.206C69.9237 328 70.8765 327.491 71.6242 326.744C72.3719 325.996 72.881 325.043 73.0868 324.006C73.2927 322.969 73.1862 321.894 72.7807 320.917C72.3752 319.941 71.6891 319.106 70.8091 318.52C69.9292 317.933 68.895 317.621 67.8376 317.623C66.4229 317.623 65.0663 318.185 64.066 319.185C63.0656 320.186 62.5037 321.542 62.5037 322.957Z" fill="#CED6DB"/>
<path d="M71.8819 322.957C71.8819 320.723 70.0712 318.913 67.8376 318.913C65.604 318.913 63.7933 320.723 63.7933 322.957C63.7933 325.191 65.604 327.001 67.8376 327.001C70.0712 327.001 71.8819 325.191 71.8819 322.957Z" fill="#CED6DB"/>
<path d="M212.38 389.412C212.382 390.643 212.018 391.846 211.335 392.871C210.653 393.895 209.681 394.694 208.544 395.165C207.407 395.637 206.156 395.761 204.949 395.521C203.741 395.282 202.632 394.689 201.762 393.819C200.891 392.948 200.299 391.839 200.059 390.632C199.819 389.424 199.943 388.173 200.415 387.036C200.887 385.899 201.686 384.928 202.71 384.245C203.734 383.562 204.938 383.199 206.169 383.201C207.815 383.203 209.394 383.858 210.558 385.022C211.723 386.187 212.378 387.765 212.38 389.412ZM200.826 389.412C200.824 390.469 201.136 391.503 201.722 392.382C202.308 393.262 203.142 393.948 204.118 394.354C205.094 394.76 206.169 394.867 207.206 394.662C208.243 394.456 209.195 393.948 209.944 393.202C210.692 392.455 211.201 391.503 211.408 390.466C211.615 389.429 211.51 388.355 211.106 387.378C210.702 386.401 210.017 385.566 209.138 384.979C208.259 384.391 207.226 384.078 206.169 384.078C204.753 384.078 203.396 384.64 202.394 385.64C201.392 386.64 200.828 387.996 200.826 389.412Z" fill="#B0B5B7"/>
<path d="M210.213 389.412C210.213 387.178 208.402 385.367 206.169 385.367C203.935 385.367 202.124 387.178 202.124 389.412C202.124 391.645 203.935 393.456 206.169 393.456C208.402 393.456 210.213 391.645 210.213 389.412Z" fill="#B0B5B7"/>
<path d="M80.5671 502.073C80.5671 503.304 80.2023 504.506 79.5188 505.529C78.8353 506.552 77.8639 507.349 76.7274 507.82C75.5908 508.291 74.3402 508.414 73.1336 508.174C71.9271 507.934 70.8188 507.342 69.9489 506.472C69.079 505.602 68.4866 504.494 68.2466 503.287C68.0066 502.08 68.1298 500.83 68.6006 499.693C69.0713 498.557 69.8686 497.585 70.8914 496.902C71.9143 496.218 73.1169 495.854 74.3471 495.854C75.996 495.856 77.5767 496.512 78.7427 497.678C79.9087 498.844 80.5647 500.425 80.5671 502.073ZM69.0131 502.073C69.0132 503.131 69.3267 504.164 69.9142 505.043C70.5016 505.921 71.3365 506.606 72.3133 507.01C73.2901 507.414 74.3648 507.52 75.4014 507.313C76.438 507.106 77.39 506.596 78.1368 505.848C78.8836 505.1 79.3918 504.147 79.597 503.11C79.8021 502.073 79.6951 500.999 79.2893 500.023C78.8836 499.047 78.1975 498.213 77.3177 497.627C76.4379 497.041 75.4041 496.729 74.3471 496.731C72.9316 496.733 71.5749 497.297 70.5749 498.299C69.5748 499.3 69.0131 500.658 69.0131 502.073Z" fill="#CED6DB"/>
<path d="M78.3914 502.073C78.3914 499.84 76.5807 498.029 74.3471 498.029C72.1135 498.029 70.3028 499.84 70.3028 502.073C70.3028 504.307 72.1135 506.118 74.3471 506.118C76.5807 506.118 78.3914 504.307 78.3914 502.073Z" fill="#CED6DB"/>
<path d="M62.9248 568.809C62.9248 569.677 62.6675 570.525 62.1855 571.246C61.7035 571.967 61.0185 572.53 60.2169 572.862C59.4154 573.194 58.5334 573.28 57.6826 573.111C56.8317 572.942 56.0501 572.524 55.4366 571.911C54.8232 571.297 54.4054 570.516 54.2361 569.665C54.0669 568.814 54.1538 567.932 54.4858 567.13C54.8178 566.329 55.38 565.644 56.1013 565.162C56.8227 564.68 57.6708 564.423 58.5383 564.423C59.7017 564.423 60.8174 564.885 61.64 565.707C62.4626 566.53 62.9248 567.646 62.9248 568.809ZM55.0292 568.809C55.0292 569.503 55.235 570.181 55.6205 570.759C56.0061 571.336 56.5542 571.785 57.1954 572.051C57.8366 572.317 58.5422 572.386 59.2229 572.251C59.9036 572.115 60.5289 571.781 61.0197 571.29C61.5104 570.8 61.8446 570.174 61.98 569.494C62.1155 568.813 62.046 568.107 61.7804 567.466C61.5148 566.825 61.065 566.277 60.4879 565.891C59.9108 565.506 59.2324 565.3 58.5383 565.3C57.6152 565.311 56.7339 565.686 56.0853 566.343C55.4366 567 55.0729 567.886 55.073 568.809L55.0292 568.809Z" fill="#B0B5B7"/>
<path d="M58.5559 566.037C59.1014 566.035 59.6352 566.195 60.0896 566.497C60.5439 566.799 60.8984 567.229 61.108 567.733C61.3175 568.237 61.3728 568.792 61.2668 569.327C61.1608 569.862 60.8983 570.353 60.5125 570.739C60.1267 571.125 59.6351 571.388 59.0999 571.494C58.5647 571.6 58.0101 571.544 57.5064 571.335C57.0027 571.125 56.5726 570.771 56.2705 570.316C55.9685 569.862 55.8082 569.328 55.81 568.783C55.8123 568.055 56.1023 567.358 56.6168 566.844C57.1312 566.329 57.8283 566.039 58.5559 566.037Z" fill="#B0B5B7"/>
<path d="M148.461 571.967C148.461 572.835 148.203 573.683 147.721 574.404C147.239 575.126 146.554 575.688 145.753 576.02C144.951 576.352 144.069 576.439 143.218 576.269C142.368 576.1 141.586 575.682 140.973 575.069C140.359 574.455 139.941 573.674 139.772 572.823C139.603 571.972 139.69 571.09 140.022 570.289C140.354 569.487 140.916 568.802 141.637 568.32C142.359 567.838 143.207 567.581 144.074 567.581C145.238 567.581 146.353 568.043 147.176 568.866C147.999 569.688 148.461 570.804 148.461 571.967ZM140.565 571.967C140.565 572.661 140.771 573.34 141.156 573.917C141.542 574.494 142.09 574.944 142.731 575.209C143.373 575.475 144.078 575.544 144.759 575.409C145.44 575.274 146.065 574.939 146.556 574.449C147.046 573.958 147.381 573.333 147.516 572.652C147.651 571.971 147.582 571.266 147.316 570.624C147.051 569.983 146.601 569.435 146.024 569.049C145.447 568.664 144.768 568.458 144.074 568.458C143.151 568.47 142.27 568.844 141.621 569.501C140.973 570.158 140.609 571.044 140.609 571.967L140.565 571.967Z" fill="#B0B5B7"/>
<path d="M144.092 569.213C144.637 569.211 145.17 569.371 145.625 569.673C146.079 569.974 146.433 570.404 146.643 570.907C146.853 571.41 146.909 571.964 146.803 572.499C146.698 573.034 146.436 573.526 146.051 573.912C145.667 574.298 145.176 574.561 144.641 574.668C144.107 574.775 143.552 574.721 143.048 574.513C142.545 574.305 142.114 573.952 141.811 573.499C141.508 573.045 141.346 572.512 141.346 571.967C141.348 571.239 141.638 570.541 142.152 570.025C142.666 569.509 143.363 569.217 144.092 569.213Z" fill="#B0B5B7"/>
<path d="M79.2424 447.024C79.2424 444.32 77.0507 442.128 74.3471 442.128C71.6435 442.128 69.4518 444.32 69.4518 447.024C69.4518 449.727 71.6435 451.919 74.3471 451.919C77.0507 451.919 79.2424 449.727 79.2424 447.024Z" fill="#CED6DB"/>
<path d="M92.6577 62.7743C89.9569 62.6517 87.6681 64.7417 87.5454 67.4425C87.4228 70.1433 89.5128 72.4321 92.2136 72.5548C94.9144 72.6774 97.2032 70.5874 97.3259 67.8866C97.4485 65.1858 95.3586 62.897 92.6577 62.7743Z" fill="#CED6DB"/>
<path d="M175.867 114.232C176.835 114.232 177.782 114.519 178.587 115.057C179.392 115.595 180.019 116.36 180.39 117.254C180.76 118.149 180.857 119.133 180.668 120.082C180.479 121.032 180.013 121.904 179.329 122.589C178.644 123.273 177.772 123.74 176.822 123.929C175.873 124.117 174.888 124.02 173.994 123.65C173.099 123.279 172.335 122.652 171.797 121.847C171.259 121.042 170.972 120.096 170.972 119.127C170.972 117.829 171.488 116.584 172.406 115.666C173.324 114.748 174.569 114.232 175.867 114.232Z" fill="#CED6DB"/>
<path d="M269.158 135.015C269.794 135.013 270.415 135.2 270.945 135.552C271.474 135.904 271.887 136.404 272.131 136.991C272.375 137.578 272.44 138.223 272.317 138.847C272.194 139.47 271.889 140.043 271.441 140.493C270.992 140.943 270.42 141.25 269.797 141.374C269.174 141.499 268.528 141.436 267.94 141.193C267.353 140.95 266.851 140.539 266.498 140.011C266.145 139.482 265.956 138.861 265.956 138.226C265.956 137.376 266.293 136.56 266.893 135.959C267.494 135.357 268.308 135.017 269.158 135.015Z" fill="#CED6DB"/>
<path d="M244.261 274.504C244.896 274.504 245.517 274.693 246.045 275.045C246.573 275.398 246.984 275.9 247.227 276.486C247.47 277.073 247.534 277.719 247.41 278.342C247.286 278.964 246.98 279.536 246.531 279.986C246.082 280.435 245.51 280.74 244.887 280.864C244.264 280.988 243.619 280.925 243.032 280.682C242.445 280.439 241.944 280.027 241.591 279.499C241.238 278.971 241.05 278.35 241.05 277.715C241.05 276.864 241.388 276.047 241.99 275.445C242.592 274.842 243.409 274.504 244.261 274.504Z" fill="#CED6DB"/>
<path d="M98.4989 242.281C98.4989 239.578 96.3072 237.386 93.6036 237.386C90.9 237.386 88.7083 239.578 88.7083 242.281C88.7083 244.985 90.9 247.177 93.6036 247.177C96.3072 247.177 98.4989 244.985 98.4989 242.281Z" fill="#CED6DB"/>
<path d="M94.5511 186.723C95.2351 186.721 95.9043 186.922 96.4738 187.301C97.0434 187.68 97.4878 188.219 97.7508 188.85C98.0137 189.482 98.0834 190.177 97.951 190.848C97.8187 191.519 97.4902 192.136 97.0071 192.62C96.5241 193.104 95.9082 193.434 95.2374 193.569C94.5667 193.703 93.8713 193.635 93.2392 193.373C92.607 193.112 92.0667 192.669 91.6865 192.1C91.3063 191.532 91.1033 190.863 91.1033 190.179C91.1022 189.726 91.1905 189.276 91.3633 188.857C91.536 188.438 91.7898 188.057 92.1101 187.736C92.4303 187.414 92.8108 187.16 93.2297 186.986C93.6485 186.812 94.0976 186.723 94.5511 186.723Z" fill="#CED6DB"/>
<path d="M100.71 174.388C101.434 174.388 102.141 174.603 102.743 175.005C103.345 175.407 103.814 175.979 104.09 176.648C104.367 177.317 104.439 178.053 104.297 178.763C104.155 179.473 103.806 180.125 103.293 180.636C102.781 181.147 102.128 181.495 101.418 181.635C100.708 181.775 99.9719 181.702 99.3036 181.424C98.6353 181.145 98.0645 180.675 97.6636 180.072C97.2627 179.469 97.0496 178.761 97.0513 178.037C97.0513 177.557 97.146 177.082 97.33 176.639C97.5139 176.195 97.7835 175.793 98.1234 175.454C98.4632 175.115 98.8665 174.846 99.3103 174.663C99.7541 174.48 100.23 174.387 100.71 174.388Z" fill="#B0B5B7"/>
<path d="M194.282 382.683C194.282 379.131 191.403 376.252 187.851 376.252C184.3 376.252 181.42 379.131 181.42 382.683C181.42 386.234 184.3 389.114 187.851 389.114C191.403 389.114 194.282 386.234 194.282 382.683Z" fill="#B0B5B7"/>
<path d="M250.691 212.374C250.691 208.823 247.812 205.944 244.261 205.944C240.709 205.944 237.83 208.823 237.83 212.374C237.83 215.926 240.709 218.805 244.261 218.805C247.812 218.805 250.691 215.926 250.691 212.374Z" fill="#CED6DB"/>
<path d="M129.362 407.247C129.956 407.245 130.537 407.42 131.031 407.749C131.526 408.077 131.912 408.545 132.14 409.093C132.369 409.641 132.429 410.245 132.315 410.827C132.2 411.41 131.915 411.945 131.495 412.366C131.076 412.786 130.542 413.073 129.959 413.19C129.377 413.306 128.773 413.247 128.225 413.02C127.676 412.793 127.207 412.409 126.877 411.915C126.547 411.422 126.37 410.841 126.37 410.247C126.37 409.453 126.685 408.691 127.246 408.129C127.807 407.567 128.568 407.249 129.362 407.247Z" fill="#CED6DB"/>
<path d="M164.743 509.416C165.337 509.416 165.917 509.592 166.41 509.922C166.903 510.252 167.288 510.72 167.515 511.269C167.742 511.817 167.802 512.42 167.686 513.002C167.57 513.584 167.284 514.119 166.865 514.538C166.445 514.958 165.91 515.244 165.328 515.359C164.746 515.475 164.143 515.416 163.595 515.189C163.047 514.962 162.578 514.577 162.248 514.084C161.919 513.59 161.743 513.01 161.743 512.417C161.743 511.621 162.059 510.858 162.622 510.295C163.184 509.733 163.947 509.416 164.743 509.416Z" fill="#B0B5B7"/>
<path d="M114.966 389.096C114.966 390.413 114.575 391.7 113.844 392.795C113.112 393.89 112.072 394.744 110.855 395.248C109.639 395.752 108.3 395.884 107.008 395.627C105.716 395.37 104.53 394.736 103.599 393.804C102.667 392.873 102.033 391.687 101.776 390.395C101.519 389.103 101.651 387.765 102.155 386.548C102.659 385.331 103.513 384.291 104.608 383.56C105.703 382.828 106.99 382.437 108.307 382.437C109.181 382.437 110.047 382.61 110.855 382.944C111.663 383.279 112.397 383.769 113.015 384.388C113.634 385.006 114.124 385.74 114.459 386.548C114.793 387.356 114.966 388.222 114.966 389.096ZM102.534 389.096C102.534 390.24 102.874 391.358 103.509 392.309C104.145 393.26 105.049 394.001 106.105 394.438C107.162 394.875 108.325 394.989 109.447 394.766C110.569 394.542 111.599 393.99 112.407 393.181C113.215 392.372 113.765 391.341 113.987 390.218C114.209 389.096 114.094 387.934 113.655 386.877C113.216 385.821 112.473 384.919 111.521 384.285C110.57 383.651 109.451 383.313 108.307 383.315C106.775 383.317 105.307 383.927 104.225 385.011C103.142 386.095 102.534 387.564 102.534 389.096Z" fill="#CED6DB"/>
<path d="M108.307 384.797C109.158 384.796 109.99 385.046 110.698 385.517C111.406 385.989 111.958 386.66 112.285 387.445C112.612 388.23 112.698 389.095 112.533 389.929C112.368 390.764 111.959 391.53 111.359 392.133C110.758 392.735 109.992 393.145 109.158 393.311C108.324 393.478 107.459 393.393 106.673 393.068C105.887 392.743 105.215 392.192 104.742 391.485C104.269 390.778 104.017 389.947 104.017 389.096C104.017 387.957 104.469 386.865 105.273 386.059C106.077 385.254 107.168 384.8 108.307 384.797Z" fill="#CED6DB"/>
<path d="M115.51 535.77C115.51 533.067 113.318 530.875 110.614 530.875C107.911 530.875 105.719 533.067 105.719 535.77C105.719 538.474 107.911 540.665 110.614 540.665C113.318 540.665 115.51 538.474 115.51 535.77Z" fill="#B0B5B7"/>
<path d="M115.51 564.282C115.51 561.579 113.318 559.387 110.614 559.387C107.911 559.387 105.719 561.579 105.719 564.282C105.719 566.986 107.911 569.177 110.614 569.177C113.318 569.177 115.51 566.986 115.51 564.282Z" fill="#B0B5B7"/>
<path d="M92.4895 463.174C92.4895 462.123 91.6372 461.271 90.5858 461.271C89.5344 461.271 88.6821 462.123 88.6821 463.174C88.6821 464.226 89.5344 465.078 90.5858 465.078C91.6372 465.078 92.4895 464.226 92.4895 463.174Z" fill="#CED6DB"/>
<path d="M77.7071 423.117C77.7071 421.262 76.2028 419.757 74.3471 419.757C72.4914 419.757 70.9871 421.262 70.9871 423.117C70.9871 424.973 72.4914 426.477 74.3471 426.477C76.2028 426.477 77.7071 424.973 77.7071 423.117Z" fill="#CED6DB"/>
<path d="M77.7071 520.058C77.7071 518.202 76.2028 516.698 74.3471 516.698C72.4914 516.698 70.9871 518.202 70.9871 520.058C70.9871 521.914 72.4914 523.418 74.3471 523.418C76.2028 523.418 77.7071 521.914 77.7071 520.058Z" fill="#B0B5B7"/>
<path d="M93.9458 601.128C93.9458 599.273 92.4415 597.768 90.5858 597.768C88.7301 597.768 87.2258 599.273 87.2258 601.128C87.2258 602.984 88.7301 604.488 90.5858 604.488C92.4415 604.488 93.9458 602.984 93.9458 601.128Z" fill="#B0B5B7"/>
<path d="M39.1853 232.377L39.1853 507.846C39.1853 507.962 39.1391 508.074 39.0568 508.156C38.9745 508.239 38.863 508.285 38.7466 508.285C38.6303 508.285 38.5187 508.239 38.4365 508.156C38.3542 508.074 38.308 507.962 38.308 507.846L38.308 232.377C38.308 232.26 38.3542 232.149 38.4364 232.067C38.5187 231.984 38.6303 231.938 38.7466 231.938C38.863 231.938 38.9745 231.984 39.0568 232.067C39.139 232.149 39.1853 232.26 39.1853 232.377Z" fill="#CED6DB"/>
<path d="M42.1066 510.329C42.1066 508.473 40.6023 506.969 38.7466 506.969C36.8909 506.969 35.3866 508.473 35.3866 510.329C35.3866 512.184 36.8909 513.689 38.7466 513.689C40.6023 513.689 42.1066 512.184 42.1066 510.329Z" fill="#CED6DB"/>
<path d="M42.1066 232.377C42.1066 230.521 40.6023 229.017 38.7466 229.017C36.8909 229.017 35.3866 230.521 35.3866 232.377C35.3866 234.232 36.8909 235.737 38.7466 235.737C40.6023 235.737 42.1066 234.232 42.1066 232.377Z" fill="#CED6DB"/>
<path d="M94.0423 189.46C94.0419 189.517 94.0301 189.574 94.0075 189.627C93.9849 189.679 93.952 189.727 93.9106 189.767C93.8699 189.808 93.8214 189.84 93.7679 189.863C93.7145 189.885 93.6571 189.896 93.5992 189.896C93.5413 189.896 93.484 189.885 93.4305 189.863C93.3771 189.84 93.3286 189.808 93.2878 189.767L-8.90781 87.5799C-8.98874 87.4964 -9.034 87.3847 -9.034 87.2685C-9.034 87.1522 -8.98874 87.0405 -8.90781 86.957C-8.86704 86.9159 -8.81852 86.8833 -8.76507 86.861C-8.71162 86.8387 -8.65428 86.8273 -8.59638 86.8273C-8.53847 86.8273 -8.48114 86.8387 -8.42768 86.861C-8.37423 86.8833 -8.32572 86.9159 -8.28494 86.957L93.9106 189.153C93.9528 189.192 93.9863 189.239 94.0089 189.292C94.0316 189.345 94.043 189.402 94.0423 189.46Z" fill="#CED6DB"/>
<path d="M99.7271 176.748C99.7268 176.866 99.6795 176.98 99.5955 177.064C99.5135 177.144 99.4033 177.189 99.2885 177.189C99.1736 177.189 99.0634 177.144 98.9814 177.064L-3.21419 74.868C-3.2553 74.8272 -3.28793 74.7787 -3.3102 74.7252C-3.33247 74.6718 -3.34394 74.6145 -3.34394 74.5565C-3.34394 74.4986 -3.33247 74.4413 -3.3102 74.3878C-3.28793 74.3344 -3.2553 74.2859 -3.21419 74.2451C-3.13071 74.1641 -3.01901 74.1189 -2.90275 74.1189C-2.78648 74.1189 -2.67478 74.1641 -2.59131 74.2451L99.5955 176.441C99.6782 176.522 99.7255 176.632 99.7271 176.748Z" fill="#B0B5B7"/>
<path d="M208.845 66.3933L208.845 213.585L144.408 278.022C144.367 278.063 144.318 278.096 144.265 278.118C144.211 278.14 144.154 278.152 144.096 278.152C144.038 278.152 143.981 278.14 143.927 278.118C143.874 278.096 143.825 278.063 143.785 278.022C143.743 277.983 143.709 277.935 143.686 277.882C143.664 277.83 143.652 277.773 143.652 277.715C143.652 277.658 143.664 277.601 143.686 277.548C143.709 277.495 143.743 277.447 143.785 277.408L207.967 213.217L207.967 66.3933C207.969 66.2777 208.016 66.1674 208.098 66.0856C208.18 66.0038 208.29 65.9569 208.406 65.9546C208.522 65.9546 208.634 66.0009 208.716 66.0832C208.798 66.1654 208.845 66.277 208.845 66.3933Z" fill="#CED6DB"/>
<path d="M156.725 380.411L156.725 385.903L148.145 394.175L148.145 388.692L156.725 380.411Z" fill="#CED6DB"/>
<path d="M156.725 370.076L156.725 375.559L148.145 383.841L148.145 378.358L156.725 370.076Z" fill="#CED6DB"/>
<path d="M156.725 359.742L156.725 365.225L148.145 373.498L148.145 368.015L156.725 359.742Z" fill="#CED6DB"/>
<path d="M156.725 349.399L156.725 354.89L148.145 363.163L148.145 357.68L156.725 349.399Z" fill="#CED6DB"/>
<path d="M156.725 339.064L156.725 344.547L148.145 352.829L148.145 347.337L156.725 339.064Z" fill="#CED6DB"/>
<path d="M156.725 328.721L156.725 334.213L148.145 342.486L148.145 337.002L156.725 328.721Z" fill="#CED6DB"/>
<path d="M156.725 318.386L156.725 323.869L148.145 332.151L148.145 326.659L156.725 318.386Z" fill="#CED6DB"/>
<path d="M156.725 308.043L156.725 313.535L148.145 321.808L148.145 316.325L156.725 308.043Z" fill="#CED6DB"/>
<path d="M235.751 480.826L235.751 491.002L219.828 506.346L219.828 496.178L235.751 480.826Z" fill="#CED6DB"/>
<path d="M235.751 461.648L235.751 471.824L219.828 487.177L219.828 477.001L235.751 461.648Z" fill="#CED6DB"/>
<path d="M235.751 442.479L235.751 452.647L219.828 467.999L219.828 457.832L235.751 442.479Z" fill="#CED6DB"/>
<path d="M235.751 423.302L235.751 433.478L219.828 448.831L219.828 438.654L235.751 423.302Z" fill="#CED6DB"/>
<path d="M235.751 404.133L235.751 414.301L219.828 429.653L219.828 419.485L235.751 404.133Z" fill="#CED6DB"/>
<path d="M235.751 384.955L235.751 395.132L219.828 410.484L219.828 400.308L235.751 384.955Z" fill="#CED6DB"/>
<path d="M235.751 365.778L235.751 375.954L219.828 391.307L219.828 381.139L235.751 365.778Z" fill="#CED6DB"/>
<path d="M235.751 346.609L235.751 356.785L219.828 372.129L219.828 361.961L235.751 346.609Z" fill="#CED6DB"/>
<path d="M17.6215 154.737L17.6215 144.56L1.68988 129.216L1.68988 139.384L17.6215 154.737Z" fill="#CED6DB"/>
<path d="M17.6215 173.905L17.6215 163.738L1.68988 148.385L1.68988 158.562L17.6215 173.905Z" fill="#CED6DB"/>
<path d="M17.6215 193.083L17.6215 182.906L1.68988 167.563L1.68988 177.73L17.6215 193.083Z" fill="#CED6DB"/>
<path d="M17.6215 212.26L17.6215 202.084L1.68988 186.731L1.68988 196.908L17.6215 212.26Z" fill="#CED6DB"/>
<path d="M17.6215 231.429L17.6215 221.261L1.68988 205.909L1.68988 216.077L17.6215 231.429Z" fill="#CED6DB"/>
<path d="M17.6215 250.607L17.6215 240.43L1.68988 225.078L1.68988 235.254L17.6215 250.607Z" fill="#CED6DB"/>
<path d="M17.6215 269.776L17.6215 259.608L1.68988 244.255L1.68988 254.423L17.6215 269.776Z" fill="#CED6DB"/>
<path d="M17.6215 288.953L17.6215 278.777L1.68988 263.433L1.68988 273.601L17.6215 288.953Z" fill="#CED6DB"/>
<path d="M192.729 628.43L192.729 622.201L184.57 613.472L175.429 623.236L175.429 629.474L184.57 619.709L192.729 628.43Z" fill="#B0B5B7"/>
<path d="M192.729 618.701L192.729 612.463L184.57 603.743L175.429 613.507L175.429 619.745L184.57 609.971L192.729 618.701Z" fill="#B0B5B7"/>
<path d="M192.729 608.971L192.729 602.734L184.57 594.014L175.429 603.778L175.429 610.007L184.57 600.242L192.729 608.971Z" fill="#B0B5B7"/>
<path d="M192.729 599.233L192.729 593.005L184.57 584.276L175.429 594.049L175.429 600.277L184.57 590.513L192.729 599.233Z" fill="#B0B5B7"/>
<path d="M192.729 589.504L192.729 583.267L184.57 574.547L175.429 584.311L175.429 590.548L184.57 580.784L192.729 589.504Z" fill="#B0B5B7"/>
<path d="M192.729 579.775L192.729 573.538L184.57 564.817L175.429 574.582L175.429 580.819L184.57 571.046L192.729 579.775Z" fill="#B0B5B7"/>
<path d="M192.729 570.037L192.729 563.808L184.57 555.079L175.429 564.852L175.429 571.081L184.57 561.317L192.729 570.037Z" fill="#B0B5B7"/>
<path d="M192.729 560.308L192.729 554.079L184.57 545.35L175.429 555.123L175.429 561.352L184.57 551.588L192.729 560.308Z" fill="#B0B5B7"/>
<path d="M61.3544 270.179L61.3544 265.012L54.5993 257.792L47.0283 265.88L47.0283 271.048L54.5993 262.95L61.3544 270.179Z" fill="#CED6DB"/>
<path d="M61.3545 262.117L61.3545 256.958L54.5993 249.73L47.0283 257.818L47.0283 262.985L54.5993 254.897L61.3545 262.117Z" fill="#CED6DB"/>
<path d="M61.3545 254.063L61.3545 248.896L54.5993 241.667L47.0283 249.765L47.0283 254.923L54.5993 246.835L61.3545 254.063Z" fill="#CED6DB"/>
<path d="M61.3544 246.001L61.3544 240.834L54.5993 233.614L47.0283 241.702L47.0283 246.861L54.5993 238.772L61.3544 246.001Z" fill="#CED6DB"/>
<path d="M61.3544 237.939L61.3544 232.78L54.5993 225.551L47.0283 233.64L47.0283 238.807L54.5993 230.71L61.3544 237.939Z" fill="#CED6DB"/>
<path d="M61.3544 229.876L61.3544 224.718L54.5993 217.489L47.0283 225.578L47.0283 230.745L54.5993 222.656L61.3544 229.876Z" fill="#CED6DB"/>
<path d="M61.3544 221.823L61.3544 216.656L54.5993 209.427L47.0283 217.524L47.0283 222.683L54.5993 214.594L61.3544 221.823Z" fill="#CED6DB"/>
<path d="M61.3544 213.761L61.3544 208.593L54.5993 201.373L47.0283 209.462L47.0283 214.62L54.5993 206.532L61.3544 213.761Z" fill="#CED6DB"/>
<path d="M61.3544 205.698L61.3544 200.54L54.5993 193.311L47.0283 201.4L47.0283 206.567L54.5993 198.469L61.3544 205.698Z" fill="#CED6DB"/>
<path d="M61.3544 197.636L61.3544 192.478L54.5993 185.249L47.0283 193.337L47.0283 198.505L54.5993 190.416L61.3544 197.636Z" fill="#CED6DB"/>
<path d="M61.3544 189.583L61.3544 184.415L54.5993 177.186L47.0283 185.284L47.0283 190.442L54.5993 182.354L61.3544 189.583Z" fill="#CED6DB"/>
</g>
<defs>
<clipPath id="clip0_48_39">
<rect width="619" height="324" fill="white" transform="translate(-3 619) rotate(-90)"/>
</clipPath>
</defs>
</svg>
