<svg width="197" height="283" viewBox="0 0 197 283" fill="none" xmlns="http://www.w3.org/2000/svg">
<g opacity="0.2" clip-path="url(#clip0_48_353)">
<path d="M28.2253 243.381L28.2253 239.951L33.5886 234.785L33.5886 238.209L28.2253 243.381Z" fill="#B0B5B7"/>
<path d="M28.2253 249.834L28.2253 246.41L33.5886 241.239L33.5886 244.668L28.2253 249.834Z" fill="#B0B5B7"/>
<path d="M28.2253 256.293L28.2253 252.864L33.5886 247.698L33.5886 251.122L28.2253 256.293Z" fill="#B0B5B7"/>
<path d="M28.2253 262.747L28.2253 259.323L33.5886 254.151L33.5886 257.575L28.2253 262.747Z" fill="#B0B5B7"/>
<path d="M28.2253 269.2L28.2253 265.776L33.5886 260.61L33.5886 264.034L28.2253 269.2Z" fill="#B0B5B7"/>
<path d="M28.2253 275.659L28.2253 272.235L33.5886 267.064L33.5886 270.488L28.2253 275.659Z" fill="#B0B5B7"/>
<path d="M28.2253 282.113L28.2253 278.689L33.5886 273.523L33.5886 276.947L28.2253 282.113Z" fill="#B0B5B7"/>
<path d="M28.2253 288.572L28.2253 285.148L33.5886 279.976L33.5886 283.4L28.2253 288.572Z" fill="#B0B5B7"/>
<path d="M83.3047 289.235L83.3047 170.173L114.104 139.38L114.104 71.174L146.7 38.5777L146.7 -7.05152C146.7 -7.12417 146.729 -7.19385 146.781 -7.24522C146.832 -7.29659 146.902 -7.32544 146.974 -7.32544C147.047 -7.32544 147.117 -7.29659 147.168 -7.24522C147.219 -7.19385 147.248 -7.12417 147.248 -7.05152L147.248 38.8024L114.652 71.3986L114.652 139.604L83.8526 170.404L83.8526 289.235C83.8512 289.307 83.8219 289.376 83.7708 289.427C83.7197 289.478 83.6509 289.507 83.5787 289.509C83.506 289.509 83.4363 289.48 83.385 289.428C83.3336 289.377 83.3047 289.307 83.3047 289.235Z" fill="#CED6DB"/>
<path d="M112.346 46.8391L112.346 -88.7722C112.346 -88.8449 112.374 -88.9145 112.426 -88.9659C112.477 -89.0173 112.547 -89.0461 112.619 -89.0461C112.692 -89.0461 112.762 -89.0173 112.813 -88.9659C112.865 -88.9145 112.893 -88.8449 112.893 -88.7722L112.893 46.6145L151.631 85.3519L151.631 135.276L122.831 164.076L122.831 194.163L196.866 268.192C196.916 268.244 196.944 268.314 196.944 268.387C196.944 268.459 196.916 268.529 196.866 268.581C196.84 268.607 196.81 268.627 196.777 268.641C196.743 268.655 196.707 268.662 196.671 268.662C196.635 268.662 196.599 268.655 196.566 268.641C196.532 268.627 196.502 268.607 196.477 268.581L122.283 194.388L122.283 163.851L151.083 135.052L151.083 85.5766L112.346 46.8391Z" fill="#B0B5B7"/>
<path d="M24.774 289.235L24.774 185.694L103.224 107.243L103.224 55.3689L136.286 22.3015L136.286 -72.518C136.286 -72.6633 136.344 -72.8026 136.446 -72.9053C136.549 -73.0081 136.689 -73.0658 136.834 -73.0658C136.979 -73.0658 137.118 -73.0081 137.221 -72.9053C137.324 -72.8026 137.382 -72.6633 137.382 -72.518L137.382 22.7562L104.32 55.8181L104.32 107.671L25.8696 186.121L25.8696 289.235C25.8696 289.38 25.8119 289.519 25.7092 289.622C25.6064 289.725 25.4671 289.782 25.3218 289.782C25.1765 289.782 25.0372 289.725 24.9344 289.622C24.8317 289.519 24.774 289.38 24.774 289.235Z" fill="#B0B5B7"/>
<path d="M40.5955 185.94L40.5955 98.8343L103.147 36.2933L103.147 -51.7001C103.147 -51.7728 103.176 -51.8425 103.228 -51.8938C103.279 -51.9452 103.349 -51.9741 103.421 -51.9741C103.494 -51.9741 103.564 -51.9452 103.615 -51.8938C103.666 -51.8425 103.695 -51.7728 103.695 -51.7001L103.695 36.5015L41.1433 99.0643L41.1433 185.71L101.953 246.52L101.953 302.602C101.952 302.674 101.922 302.743 101.871 302.794C101.82 302.845 101.751 302.874 101.679 302.876C101.607 302.876 101.537 302.847 101.486 302.796C101.434 302.744 101.405 302.674 101.405 302.602L101.405 246.723L40.5955 185.94Z" fill="#B0B5B7"/>
<path d="M124.053 1.18788L124.053 -31.6823C124.053 -31.7549 124.082 -31.8246 124.133 -31.876C124.184 -31.9273 124.254 -31.9562 124.327 -31.9562C124.399 -31.9562 124.469 -31.9273 124.52 -31.876C124.572 -31.8246 124.601 -31.7549 124.601 -31.6823L124.601 0.979699L159.114 35.4934L159.114 93.9529L135.283 117.784L135.283 174.808L198.252 237.771C198.277 237.796 198.298 237.827 198.312 237.86C198.326 237.893 198.333 237.929 198.333 237.965C198.333 238.001 198.326 238.037 198.312 238.071C198.298 238.104 198.277 238.134 198.252 238.16C198.2 238.21 198.13 238.239 198.057 238.239C197.985 238.239 197.915 238.21 197.863 238.16L134.736 175.033L134.736 117.581L158.566 93.7503L158.566 35.7015L124.053 1.18788Z" fill="#CED6DB"/>
<path d="M9.20445 200.962L9.20446 160.762L75.8487 94.1118L75.8487 10.2053L95.6749 -9.61543L95.6749 -91.6922C95.6749 -91.7649 95.7037 -91.8345 95.7551 -91.8859C95.8065 -91.9373 95.8762 -91.9661 95.9488 -91.9661C96.0214 -91.9661 96.0911 -91.9373 96.1425 -91.8859C96.1939 -91.8345 96.2227 -91.7649 96.2227 -91.6922L96.2227 -9.40724L76.3965 10.4189L76.3965 94.3419L9.75229 160.986L9.75229 200.737L51.3878 242.373L51.3878 289.24C51.3878 289.313 51.359 289.382 51.3076 289.434C51.2562 289.485 51.1865 289.514 51.1139 289.514C51.0413 289.514 50.9716 289.485 50.9202 289.434C50.8688 289.382 50.84 289.313 50.84 289.24L50.84 242.592L9.20445 200.962Z" fill="#B0B5B7"/>
<path d="M156.287 -6.37221L156.287 -49.5088C156.287 -49.6541 156.345 -49.7934 156.448 -49.8962C156.551 -49.9989 156.69 -50.0566 156.835 -50.0566C156.981 -50.0566 157.12 -49.9989 157.223 -49.8962C157.325 -49.7934 157.383 -49.6541 157.383 -49.5088L157.383 -6.82692L181.849 17.6449L181.849 111.144L200.295 129.584C200.398 129.687 200.456 129.827 200.456 129.973C200.456 130.119 200.398 130.259 200.295 130.362C200.192 130.465 200.052 130.523 199.906 130.523C199.76 130.523 199.62 130.465 199.517 130.362L180.754 111.599L180.754 18.0996L156.287 -6.37221Z" fill="#B0B5B7"/>
<path d="M60.5039 -139.54C60.5045 -139.684 60.5615 -139.822 60.6628 -139.924C60.7137 -139.975 60.7743 -140.016 60.841 -140.044C60.9078 -140.071 60.9794 -140.086 61.0517 -140.086C61.124 -140.086 61.1956 -140.071 61.2624 -140.044C61.3292 -140.016 61.3897 -139.975 61.4407 -139.924L91.0731 -110.291L91.0731 -16.7318L65.281 9.06032L65.281 55.7633C65.281 55.9086 65.2233 56.048 65.1205 56.1507C65.0178 56.2535 64.8785 56.3112 64.7332 56.3112C64.5879 56.3112 64.4485 56.2535 64.3458 56.1507C64.243 56.048 64.1853 55.9086 64.1853 55.7633L64.1853 8.60564L89.9774 -17.1865L89.9774 -109.836L60.6628 -139.151C60.612 -139.202 60.5718 -139.263 60.5445 -139.33C60.5173 -139.397 60.5035 -139.468 60.5039 -139.54Z" fill="#B0B5B7"/>
<path d="M102.873 214.652L102.873 176.337C102.873 176.191 102.931 176.052 103.034 175.949C103.137 175.846 103.276 175.789 103.421 175.789C103.567 175.789 103.706 175.846 103.809 175.949C103.911 176.052 103.969 176.191 103.969 176.337L103.969 214.197L136.291 246.52L136.291 263.344C136.291 263.489 136.234 263.629 136.131 263.731C136.028 263.834 135.889 263.892 135.744 263.892C135.598 263.892 135.459 263.834 135.356 263.731C135.253 263.629 135.196 263.489 135.196 263.344L135.196 246.991L102.873 214.652Z" fill="#B0B5B7"/>
<path d="M5.5997 200.852C5.5997 200.085 5.82719 199.335 6.25338 198.697C6.67957 198.06 7.28534 197.562 7.99407 197.269C8.70281 196.975 9.48268 196.898 10.2351 197.048C10.9875 197.198 11.6786 197.567 12.221 198.11C12.7635 198.652 13.1329 199.343 13.2825 200.096C13.4322 200.848 13.3554 201.628 13.0618 202.337C12.7682 203.045 12.2711 203.651 11.6333 204.077C10.9954 204.503 10.2455 204.731 9.47839 204.731C8.45059 204.728 7.46571 204.318 6.73894 203.592C6.01217 202.865 5.60259 201.88 5.5997 200.852ZM12.8092 200.852C12.8092 200.193 12.6139 199.549 12.2479 199.002C11.8819 198.454 11.3617 198.027 10.753 197.775C10.1444 197.523 9.47469 197.457 8.82857 197.585C8.18245 197.714 7.58894 198.031 7.12312 198.497C6.65729 198.963 6.34005 199.556 6.21153 200.202C6.08301 200.849 6.14899 201.518 6.40109 202.127C6.65319 202.736 7.08011 203.256 7.62787 203.622C8.17562 203.988 8.81961 204.183 9.47839 204.183C10.3613 204.182 11.2077 203.83 11.832 203.206C12.4564 202.582 12.8078 201.735 12.8092 200.852Z" fill="#CED6DB"/>
<path d="M6.95286 200.852C6.95286 202.247 8.08358 203.378 9.47839 203.378C10.8732 203.378 12.0039 202.247 12.0039 200.852C12.0039 199.457 10.8732 198.327 9.47839 198.327C8.08358 198.327 6.95286 199.457 6.95286 200.852Z" fill="#CED6DB"/>
<path d="M79.7 170.173C79.7 169.406 79.9274 168.656 80.3536 168.019C80.7798 167.381 81.3856 166.884 82.0944 166.59C82.8031 166.296 83.583 166.22 84.3353 166.369C85.0877 166.519 85.7788 166.888 86.3213 167.431C86.8637 167.973 87.2331 168.664 87.3828 169.417C87.5325 170.169 87.4557 170.949 87.1621 171.658C86.8685 172.366 86.3714 172.972 85.7335 173.398C85.0957 173.825 84.3458 174.052 83.5787 174.052C82.55 174.052 81.5634 173.643 80.836 172.916C80.1086 172.189 79.7 171.202 79.7 170.173ZM86.9095 170.173C86.9095 169.515 86.7141 168.871 86.3481 168.323C85.9822 167.775 85.4619 167.348 84.8533 167.096C84.2447 166.844 83.575 166.778 82.9288 166.907C82.2827 167.035 81.6892 167.352 81.2234 167.818C80.7576 168.284 80.4403 168.877 80.3118 169.524C80.1833 170.17 80.2492 170.839 80.5014 171.448C80.7535 172.057 81.1804 172.577 81.7281 172.943C82.2759 173.309 82.9199 173.504 83.5787 173.504C84.0161 173.504 84.4492 173.418 84.8533 173.251C85.2574 173.083 85.6246 172.838 85.9339 172.529C86.2432 172.219 86.4886 171.852 86.6559 171.448C86.8233 171.044 86.9095 170.611 86.9095 170.173Z" fill="#CED6DB"/>
<path d="M81.0531 170.195C81.0531 171.59 82.1839 172.721 83.5787 172.721C84.9735 172.721 86.1042 171.59 86.1042 170.195C86.1042 168.801 84.9735 167.67 83.5787 167.67C82.1839 167.67 81.0531 168.801 81.0531 170.195Z" fill="#CED6DB"/>
<path d="M99.5372 172.409C99.5361 171.64 99.763 170.889 100.189 170.249C100.615 169.61 101.221 169.111 101.931 168.816C102.641 168.521 103.422 168.444 104.176 168.593C104.93 168.742 105.622 169.112 106.166 169.655C106.71 170.198 107.08 170.89 107.23 171.643C107.381 172.397 107.304 173.178 107.01 173.888C106.717 174.598 106.219 175.205 105.58 175.632C104.941 176.059 104.19 176.287 103.421 176.287C102.392 176.287 101.405 175.879 100.677 175.152C99.9485 174.424 99.5386 173.438 99.5372 172.409ZM106.752 172.409C106.753 171.748 106.558 171.102 106.192 170.553C105.826 170.003 105.305 169.575 104.695 169.322C104.085 169.069 103.414 169.002 102.766 169.131C102.119 169.259 101.524 169.577 101.057 170.044C100.59 170.511 100.272 171.106 100.143 171.754C100.015 172.401 100.081 173.073 100.335 173.682C100.588 174.292 101.016 174.813 101.566 175.179C102.115 175.546 102.761 175.74 103.421 175.739C103.86 175.741 104.294 175.656 104.699 175.489C105.105 175.322 105.473 175.077 105.784 174.768C106.094 174.458 106.34 174.091 106.509 173.686C106.677 173.281 106.763 172.847 106.763 172.409L106.752 172.409Z" fill="#CED6DB"/>
<path d="M100.896 172.409C100.896 173.803 102.026 174.934 103.421 174.934C104.816 174.934 105.947 173.803 105.947 172.409C105.947 171.014 104.816 169.883 103.421 169.883C102.026 169.883 100.896 171.014 100.896 172.409Z" fill="#CED6DB"/>
<path d="M103.421 131.967C102.922 131.967 102.433 131.819 102.018 131.542C101.603 131.264 101.279 130.87 101.088 130.408C100.897 129.947 100.847 129.439 100.944 128.949C101.042 128.459 101.282 128.009 101.635 127.656C101.989 127.303 102.439 127.062 102.929 126.965C103.418 126.867 103.926 126.917 104.388 127.109C104.849 127.3 105.244 127.623 105.521 128.039C105.799 128.454 105.947 128.942 105.947 129.442C105.947 130.112 105.681 130.754 105.207 131.228C104.733 131.701 104.091 131.967 103.421 131.967Z" fill="#CED6DB"/>
<path d="M60.7339 262.385C60.7339 263.78 61.8646 264.911 63.2594 264.911C64.6542 264.911 65.7849 263.78 65.7849 262.385C65.7849 260.99 64.6542 259.86 63.2594 259.86C61.8646 259.86 60.7339 260.99 60.7339 262.385Z" fill="#CED6DB"/>
<path d="M147.155 101.19C147.154 100.422 147.381 99.67 147.807 99.0305C148.233 98.3911 148.839 97.8924 149.549 97.5975C150.259 97.3027 151.04 97.225 151.794 97.3743C152.547 97.5235 153.24 97.893 153.784 98.436C154.328 98.979 154.698 99.6711 154.848 100.425C154.999 101.178 154.922 101.96 154.628 102.67C154.334 103.38 153.837 103.987 153.198 104.414C152.559 104.841 151.808 105.069 151.039 105.069C150.01 105.069 149.023 104.66 148.295 103.933C147.566 103.206 147.157 102.219 147.155 101.19ZM154.37 101.19C154.371 100.53 154.176 99.8838 153.81 99.3343C153.444 98.7848 152.923 98.3564 152.313 98.1032C151.703 97.85 151.032 97.7834 150.384 97.912C149.737 98.0406 149.142 98.3584 148.675 98.8253C148.208 99.2923 147.89 99.8872 147.761 100.535C147.633 101.183 147.699 101.854 147.952 102.464C148.206 103.074 148.634 103.595 149.184 103.961C149.733 104.327 150.379 104.522 151.039 104.521C151.923 104.521 152.77 104.17 153.395 103.545C154.019 102.921 154.37 102.073 154.37 101.19Z" fill="#CED6DB"/>
<path d="M148.514 101.19C148.514 102.585 149.644 103.715 151.039 103.715C152.434 103.715 153.565 102.585 153.565 101.19C153.565 99.7951 152.434 98.6644 151.039 98.6644C149.644 98.6644 148.514 99.7951 148.514 101.19Z" fill="#CED6DB"/>
<path d="M60.7777 59.6914C60.7766 58.9227 61.0036 58.171 61.43 57.5314C61.8564 56.8918 62.463 56.3931 63.1729 56.0984C63.8829 55.8038 64.6643 55.7264 65.4183 55.8761C66.1722 56.0258 66.8648 56.3959 67.4084 56.9394C67.9519 57.4829 68.322 58.1755 68.4717 58.9295C68.6213 59.6834 68.544 60.4649 68.2493 61.1748C67.9546 61.8848 67.456 62.4914 66.8164 62.9177C66.1768 63.3441 65.4251 63.5711 64.6564 63.57C63.6281 63.5686 62.6424 63.1595 61.9153 62.4324C61.1883 61.7053 60.7792 60.7196 60.7777 59.6914ZM67.9927 59.6914C67.9938 59.0313 67.799 58.3857 67.4331 57.8363C67.0672 57.2869 66.5465 56.8585 65.9369 56.6051C65.3274 56.3518 64.6564 56.2849 64.0089 56.413C63.3613 56.5411 62.7663 56.8585 62.2992 57.3248C61.8321 57.7912 61.5138 58.3857 61.3846 59.033C61.2554 59.6803 61.3212 60.3514 61.5735 60.9614C61.8259 61.5713 62.2535 62.0927 62.8023 62.4596C63.351 62.8264 63.9963 63.0222 64.6564 63.0222C65.5403 63.0222 66.3881 62.6715 67.0136 62.047C67.6391 61.4225 67.9913 60.5753 67.9927 59.6914Z" fill="#B0B5B7"/>
<path d="M62.1309 59.6914C62.1309 61.0862 63.2616 62.2169 64.6564 62.2169C66.0512 62.2169 67.1819 61.0862 67.1819 59.6914C67.1819 58.2966 66.0512 57.1658 64.6564 57.1658C63.2616 57.1658 62.1309 58.2966 62.1309 59.6914Z" fill="#B0B5B7"/>
<path d="M143.917 23.715C143.917 25.4032 145.286 26.7719 146.974 26.7719C148.662 26.7719 150.031 25.4032 150.031 23.715C150.031 22.0267 148.662 20.6581 146.974 20.6581C145.286 20.6581 143.917 22.0267 143.917 23.715Z" fill="#CED6DB"/>
<path d="M135.54 263.664C137.226 263.741 138.656 262.436 138.732 260.749C138.809 259.063 137.504 257.634 135.817 257.557C134.131 257.48 132.701 258.785 132.625 260.472C132.548 262.159 133.853 263.588 135.54 263.664Z" fill="#CED6DB"/>
<path d="M83.5787 231.531C82.9741 231.531 82.3831 231.352 81.8804 231.016C81.3777 230.68 80.9858 230.203 80.7545 229.644C80.5231 229.085 80.4626 228.471 80.5805 227.878C80.6985 227.285 80.9896 226.74 81.4171 226.313C81.8446 225.885 82.3893 225.594 82.9823 225.476C83.5753 225.358 84.19 225.419 84.7485 225.65C85.3071 225.881 85.7845 226.273 86.1204 226.776C86.4563 227.278 86.6356 227.869 86.6356 228.474C86.6356 229.285 86.3136 230.062 85.7403 230.636C85.167 231.209 84.3894 231.531 83.5787 231.531Z" fill="#CED6DB"/>
<path d="M25.3218 218.553C24.925 218.554 24.5368 218.437 24.2064 218.218C23.8759 217.998 23.6181 217.685 23.4655 217.319C23.3129 216.953 23.2724 216.549 23.3491 216.16C23.4259 215.771 23.6164 215.413 23.8966 215.132C24.1768 214.851 24.534 214.659 24.9231 214.582C25.3122 214.504 25.7157 214.543 26.0824 214.695C26.4491 214.846 26.7625 215.103 26.9831 215.433C27.2037 215.763 27.3214 216.151 27.3214 216.548C27.3214 217.079 27.1109 217.588 26.7361 217.964C26.3612 218.34 25.8526 218.551 25.3218 218.553Z" fill="#CED6DB"/>
<path d="M40.8694 131.447C40.4728 131.447 40.0851 131.329 39.7554 131.109C39.4257 130.889 39.1687 130.576 39.0169 130.209C38.8652 129.843 38.8255 129.44 38.9028 129.051C38.9802 128.662 39.1711 128.304 39.4516 128.024C39.732 127.744 40.0893 127.553 40.4782 127.475C40.8672 127.398 41.2703 127.438 41.6367 127.589C42.0031 127.741 42.3162 127.998 42.5365 128.328C42.7569 128.658 42.8745 129.045 42.8745 129.442C42.8745 129.974 42.6632 130.484 42.2872 130.86C41.9111 131.236 41.4011 131.447 40.8694 131.447Z" fill="#CED6DB"/>
<path d="M131.892 151.569C131.892 153.257 133.261 154.626 134.949 154.626C136.638 154.626 138.006 153.257 138.006 151.569C138.006 149.881 136.638 148.512 134.949 148.512C133.261 148.512 131.892 149.881 131.892 151.569Z" fill="#CED6DB"/>
<path d="M134.358 186.263C133.93 186.264 133.513 186.139 133.157 185.902C132.801 185.666 132.524 185.329 132.36 184.935C132.195 184.54 132.152 184.106 132.234 183.687C132.317 183.268 132.522 182.883 132.824 182.581C133.126 182.278 133.51 182.072 133.929 181.988C134.348 181.905 134.782 181.947 135.177 182.11C135.572 182.273 135.909 182.55 136.146 182.905C136.384 183.26 136.511 183.678 136.511 184.105C136.511 184.388 136.456 184.669 136.348 184.93C136.24 185.192 136.082 185.43 135.882 185.631C135.682 185.831 135.444 185.99 135.183 186.099C134.921 186.207 134.641 186.263 134.358 186.263Z" fill="#CED6DB"/>
<path d="M130.512 193.966C130.06 193.966 129.618 193.832 129.242 193.581C128.866 193.329 128.573 192.972 128.401 192.554C128.228 192.137 128.183 191.677 128.272 191.234C128.36 190.79 128.578 190.383 128.898 190.064C129.218 189.745 129.626 189.528 130.069 189.44C130.513 189.353 130.972 189.399 131.39 189.572C131.807 189.746 132.164 190.04 132.414 190.416C132.664 190.793 132.797 191.235 132.796 191.687C132.796 191.987 132.737 192.283 132.622 192.56C132.507 192.837 132.339 193.089 132.127 193.3C131.915 193.512 131.663 193.68 131.386 193.794C131.108 193.908 130.812 193.967 130.512 193.966Z" fill="#B0B5B7"/>
<path d="M72.0796 63.8933C72.0796 66.111 73.8774 67.9089 76.0952 67.9089C78.313 67.9089 80.1108 66.111 80.1108 63.8933C80.1108 61.6755 78.313 59.8776 76.0952 59.8776C73.8774 59.8776 72.0796 61.6755 72.0796 63.8933Z" fill="#B0B5B7"/>
<path d="M36.8537 170.245C36.8537 172.462 38.6516 174.26 40.8694 174.26C43.0872 174.26 44.885 172.462 44.885 170.245C44.885 168.027 43.0872 166.229 40.8694 166.229C38.6516 166.229 36.8537 168.027 36.8537 170.245Z" fill="#CED6DB"/>
<path d="M112.619 48.5538C112.249 48.5549 111.886 48.446 111.577 48.2407C111.268 48.0355 111.027 47.7433 110.885 47.401C110.742 47.0588 110.704 46.6819 110.776 46.3181C110.847 45.9543 111.025 45.62 111.287 45.3574C111.549 45.0948 111.883 44.9158 112.246 44.843C112.61 44.7703 112.987 44.8071 113.33 44.9487C113.672 45.0904 113.965 45.3305 114.171 45.6388C114.378 45.947 114.488 46.3095 114.488 46.6803C114.488 47.1762 114.291 47.6519 113.941 48.0031C113.591 48.3543 113.115 48.5524 112.619 48.5538Z" fill="#CED6DB"/>
<path d="M121.609 59.8885C121.609 59.0662 121.853 58.2622 122.31 57.5784C122.767 56.8946 123.417 56.3617 124.176 56.047C124.936 55.7323 125.772 55.6499 126.579 55.8104C127.385 55.9708 128.126 56.3668 128.708 56.9483C129.289 57.5299 129.685 58.2708 129.846 59.0774C130.006 59.8839 129.924 60.72 129.609 61.4798C129.294 62.2395 128.761 62.889 128.078 63.3459C127.394 63.8028 126.59 64.0466 125.768 64.0466C125.221 64.0466 124.681 63.9391 124.176 63.7301C123.672 63.5212 123.213 63.2149 122.827 62.8287C122.441 62.4426 122.135 61.9842 121.926 61.4798C121.717 60.9753 121.609 60.4346 121.609 59.8885ZM129.372 59.8885C129.372 59.1743 129.16 58.4761 128.763 57.8822C128.367 57.2884 127.802 56.8257 127.142 56.5526C126.482 56.2795 125.756 56.2083 125.056 56.3481C124.355 56.4878 123.712 56.8322 123.207 57.3377C122.703 57.8431 122.359 58.4869 122.221 59.1876C122.082 59.8883 122.154 60.6143 122.428 61.2739C122.702 61.9335 123.166 62.497 123.76 62.893C124.355 63.2891 125.053 63.4999 125.768 63.4988C126.724 63.4973 127.641 63.1163 128.317 62.4394C128.993 61.7625 129.372 60.8451 129.372 59.8885Z" fill="#CED6DB"/>
<path d="M125.767 62.573C125.236 62.5741 124.717 62.4175 124.275 62.1232C123.832 61.8289 123.488 61.41 123.284 60.9196C123.08 60.4292 123.026 59.8893 123.129 59.3682C123.231 58.8471 123.487 58.3683 123.862 57.9923C124.237 57.6164 124.715 57.3602 125.236 57.2561C125.757 57.1521 126.297 57.205 126.788 57.408C127.279 57.611 127.698 57.9551 127.994 58.3966C128.289 58.8382 128.446 59.3574 128.446 59.8886C128.446 60.5996 128.164 61.2815 127.662 61.7848C127.16 62.288 126.478 62.5715 125.767 62.573Z" fill="#CED6DB"/>
<path d="M135.645 13.6293C135.645 14.2859 136.177 14.8181 136.834 14.8181C137.49 14.8181 138.023 14.2859 138.023 13.6293C138.023 12.9728 137.49 12.4405 136.834 12.4405C136.177 12.4405 135.645 12.9728 135.645 13.6293Z" fill="#CED6DB"/>
<path d="M144.876 38.6435C144.876 39.8023 145.815 40.7417 146.974 40.7417C148.133 40.7417 149.072 39.8023 149.072 38.6435C149.072 37.4847 148.133 36.5453 146.974 36.5453C145.815 36.5453 144.876 37.4847 144.876 38.6435Z" fill="#CED6DB"/>
<path d="M168.932 157.754L168.932 -14.2665C168.932 -14.3392 168.96 -14.4089 169.012 -14.4602C169.063 -14.5116 169.133 -14.5405 169.205 -14.5405C169.278 -14.5405 169.348 -14.5116 169.399 -14.4602C169.451 -14.4089 169.479 -14.3392 169.479 -14.2665L169.479 157.754C169.479 157.827 169.451 157.896 169.399 157.948C169.348 157.999 169.278 158.028 169.205 158.028C169.133 158.028 169.063 157.999 169.012 157.948C168.96 157.896 168.932 157.827 168.932 157.754Z" fill="#CED6DB"/>
<path d="M167.107 157.754C167.107 158.913 168.047 159.852 169.205 159.852C170.364 159.852 171.304 158.913 171.304 157.754C171.304 156.595 170.364 155.656 169.205 155.656C168.047 155.656 167.107 156.595 167.107 157.754Z" fill="#CED6DB"/>
<path d="M134.675 184.554C134.676 184.518 134.683 184.483 134.697 184.45C134.711 184.417 134.732 184.387 134.757 184.362C134.783 184.337 134.813 184.316 134.847 184.302C134.88 184.289 134.916 184.281 134.952 184.281C134.988 184.281 135.024 184.289 135.057 184.302C135.091 184.316 135.121 184.337 135.146 184.362L198.964 248.174C199.014 248.226 199.043 248.296 199.043 248.369C199.043 248.441 199.014 248.511 198.964 248.563C198.938 248.589 198.908 248.609 198.875 248.623C198.841 248.637 198.806 248.644 198.769 248.644C198.733 248.644 198.697 248.637 198.664 248.623C198.631 248.609 198.6 248.589 198.575 248.563L134.757 184.746C134.731 184.721 134.71 184.692 134.696 184.659C134.682 184.626 134.675 184.59 134.675 184.554Z" fill="#CED6DB"/>
<path d="M131.125 192.492C131.126 192.418 131.155 192.347 131.208 192.295C131.259 192.245 131.328 192.217 131.399 192.217C131.471 192.217 131.54 192.245 131.591 192.295L195.408 256.112C195.434 256.138 195.454 256.168 195.468 256.202C195.482 256.235 195.489 256.271 195.489 256.307C195.489 256.343 195.482 256.379 195.468 256.412C195.454 256.446 195.434 256.476 195.408 256.501C195.356 256.552 195.287 256.58 195.214 256.58C195.141 256.58 195.072 256.552 195.019 256.501L131.208 192.684C131.156 192.633 131.126 192.565 131.125 192.492Z" fill="#B0B5B7"/>
<path d="M62.9855 261.405L62.9855 169.489L103.224 129.25C103.25 129.224 103.28 129.204 103.313 129.19C103.347 129.176 103.382 129.169 103.419 129.169C103.455 129.169 103.491 129.176 103.524 129.19C103.557 129.204 103.588 129.224 103.613 129.25C103.639 129.275 103.66 129.304 103.674 129.337C103.689 129.37 103.696 129.406 103.696 129.442C103.696 129.478 103.689 129.513 103.674 129.546C103.66 129.579 103.639 129.609 103.613 129.634L63.5334 169.719L63.5333 261.405C63.5319 261.477 63.5026 261.546 63.4516 261.597C63.4005 261.648 63.3316 261.677 63.2594 261.678C63.1868 261.678 63.1171 261.65 63.0657 261.598C63.0144 261.547 62.9855 261.477 62.9855 261.405Z" fill="#CED6DB"/>
<path d="M95.5325 65.3122L95.5325 61.8827L100.89 56.7166L100.89 60.1406L95.5325 65.3122Z" fill="#CED6DB"/>
<path d="M95.5325 71.7657L95.5325 68.3417L100.89 63.1701L100.89 66.5941L95.5325 71.7657Z" fill="#CED6DB"/>
<path d="M95.5325 78.2192L95.5325 74.7952L100.89 69.6291L100.89 73.053L95.5325 78.2192Z" fill="#CED6DB"/>
<path d="M95.5325 84.6782L95.5325 81.2487L100.89 76.0826L100.89 79.5066L95.5325 84.6782Z" fill="#CED6DB"/>
<path d="M95.5325 91.1316L95.5325 87.7077L100.89 82.5361L100.89 85.9656L95.5325 91.1316Z" fill="#CED6DB"/>
<path d="M95.5325 97.5906L95.5325 94.1612L100.89 88.9951L100.89 92.4191L95.5325 97.5906Z" fill="#CED6DB"/>
<path d="M95.5325 104.044L95.5325 100.62L100.89 95.4486L100.89 98.878L95.5325 104.044Z" fill="#CED6DB"/>
<path d="M95.5324 110.503L95.5324 107.074L100.89 101.908L100.89 105.332L95.5324 110.503Z" fill="#CED6DB"/>
<path d="M46.1834 2.60683L46.1834 -3.74805L56.1266 -13.3297L56.1266 -6.9803L46.1834 2.60683Z" fill="#CED6DB"/>
<path d="M46.1834 14.5825L46.1834 8.22763L56.1266 -1.3595L56.1266 4.99539L46.1834 14.5825Z" fill="#CED6DB"/>
<path d="M46.1834 26.5528L46.1834 20.2033L56.1266 10.6162L56.1266 16.9656L46.1834 26.5528Z" fill="#CED6DB"/>
<path d="M46.1834 38.5285L46.1834 32.1736L56.1266 22.5864L56.1266 28.9413L46.1834 38.5285Z" fill="#CED6DB"/>
<path d="M46.1834 50.4986L46.1834 44.1492L56.1266 34.5621L56.1266 40.9115L46.1834 50.4986Z" fill="#CED6DB"/>
<path d="M46.1834 62.4744L46.1834 56.1195L56.1266 46.5323L56.1266 52.8872L46.1834 62.4744Z" fill="#CED6DB"/>
<path d="M46.1834 74.4501L46.1834 68.0952L56.1266 58.508L56.1266 64.8575L46.1834 74.4501Z" fill="#CED6DB"/>
<path d="M46.1834 86.4203L46.1834 80.0654L56.1266 70.4838L56.1266 76.8332L46.1834 86.4203Z" fill="#CED6DB"/>
<path d="M182.397 206.237L182.397 212.592L192.346 222.174L192.346 215.825L182.397 206.237Z" fill="#CED6DB"/>
<path d="M182.397 194.267L182.397 200.617L192.346 210.204L192.346 203.849L182.397 194.267Z" fill="#CED6DB"/>
<path d="M182.397 182.292L182.397 188.646L192.346 198.228L192.346 191.879L182.397 182.292Z" fill="#CED6DB"/>
<path d="M182.397 170.316L182.397 176.671L192.346 186.258L192.346 179.903L182.397 170.316Z" fill="#CED6DB"/>
<path d="M182.397 158.346L182.397 164.695L192.346 174.282L192.346 167.933L182.397 158.346Z" fill="#CED6DB"/>
<path d="M182.397 146.37L182.397 152.725L192.346 162.312L192.346 155.957L182.397 146.37Z" fill="#CED6DB"/>
<path d="M182.397 134.4L182.397 140.749L192.346 150.336L192.346 143.987L182.397 134.4Z" fill="#CED6DB"/>
<path d="M182.397 122.424L182.397 128.779L192.346 138.361L192.346 132.011L182.397 122.424Z" fill="#CED6DB"/>
<path d="M155.088 134.148L155.088 137.374L159.306 141.883L164.034 136.832L164.034 133.605L159.306 138.662L155.088 134.148Z" fill="#CED6DB"/>
<path d="M155.088 139.182L155.088 142.404L159.306 146.918L164.034 141.867L164.034 138.64L159.306 143.691L155.088 139.182Z" fill="#CED6DB"/>
<path d="M155.088 144.211L155.088 147.438L159.306 151.952L164.034 146.896L164.034 143.675L159.306 148.726L155.088 144.211Z" fill="#CED6DB"/>
<path d="M155.088 149.246L155.088 152.473L159.306 156.982L164.034 151.931L164.034 148.709L159.306 153.76L155.088 149.246Z" fill="#CED6DB"/>
<path d="M155.088 154.281L155.088 157.502L159.306 162.016L164.034 156.965L164.034 153.738L159.306 158.795L155.088 154.281Z" fill="#CED6DB"/>
<path d="M155.088 159.315L155.088 162.537L159.306 167.051L164.034 162L164.034 158.773L159.306 163.824L155.088 159.315Z" fill="#CED6DB"/>
<path d="M155.088 164.344L155.088 167.571L159.306 172.085L164.034 167.029L164.034 163.808L159.306 168.859L155.088 164.344Z" fill="#CED6DB"/>
<path d="M155.088 169.379L155.088 172.606L159.306 177.114L164.034 172.063L164.034 168.842L159.306 173.893L155.088 169.379Z" fill="#CED6DB"/>
<path d="M155.088 174.414L155.088 177.635L159.306 182.149L164.034 177.098L164.034 173.871L159.306 178.928L155.088 174.414Z" fill="#CED6DB"/>
<path d="M155.088 179.448L155.088 182.67L159.306 187.184L164.034 182.133L164.034 178.906L159.306 183.957L155.088 179.448Z" fill="#CED6DB"/>
<path d="M155.088 184.477L155.088 187.704L159.306 192.218L164.034 187.162L164.034 183.941L159.306 188.992L155.088 184.477Z" fill="#CED6DB"/>
</g>
<defs>
<clipPath id="clip0_48_353">
<rect width="283" height="197" fill="white" transform="translate(197) rotate(90)"/>
</clipPath>
</defs>
</svg>
