<svg width="36" height="40" viewBox="0 0 36 40" fill="none" xmlns="http://www.w3.org/2000/svg">
<path d="M36 11.3071C36.0025 10.8271 35.877 10.3552 35.6365 9.9398H35.6192C35.3738 9.51017 35.0144 9.15676 34.5807 8.91865L19.35 0.351351C18.9373 0.120955 18.4726 0 18 0C17.5274 0 17.0626 0.120955 16.65 0.351351L1.41923 8.91865C0.989172 9.16162 0.630932 9.51389 0.380769 9.9398C0.380769 9.9444 0.378945 9.9488 0.3757 9.95204C0.372454 9.95529 0.368052 9.95711 0.363461 9.95711V9.99173C0.127174 10.3899 0.00168475 10.8441 0 11.3071V28.3725C0.000875091 28.8659 0.132725 29.3501 0.382076 29.7759C0.631427 30.2016 0.989337 30.5535 1.41923 30.7956L16.65 39.3629C17.0334 39.572 17.4597 39.6904 17.8961 39.709H18.1211C18.552 39.6903 18.9727 39.5718 19.35 39.3629L34.5807 30.7956C35.0106 30.5535 35.3685 30.2016 35.6179 29.7759C35.8672 29.3501 35.9991 28.8659 36 28.3725V11.3071ZM24.9231 24.3225V33.0456L19.4019 36.1609L19.5404 20.6533L33.2307 12.8648V18.8359L25.6327 23.1283C25.4185 23.2458 25.2397 23.4185 25.1149 23.6285C24.9901 23.8386 24.9239 24.0782 24.9231 24.3225ZM10.3673 23.1283L2.76923 18.8359V12.8475L16.7711 20.6533L16.6327 36.1782L11.0769 33.0456V24.3225C11.0761 24.0782 11.0099 23.8386 10.8851 23.6285C10.7603 23.4185 10.5815 23.2458 10.3673 23.1283ZM9.51922 7.49942L17.325 11.8783C17.5284 12.0021 17.7619 12.0676 18 12.0676C18.2381 12.0676 18.4716 12.0021 18.675 11.8783L26.4807 7.49942L31.7942 10.4936L18.1558 18.2475L4.22307 10.4936L9.51922 7.49942ZM18 2.73981L23.6423 5.90712L18 9.09173L12.3577 5.90712L18 2.73981ZM2.76923 22.0206L8.30768 25.1359V31.4879L2.76923 28.3725V22.0206ZM27.6923 31.4879V25.1359L33.2307 22.0206V28.3725L27.6923 31.4879Z" fill="white"/>
</svg>
