<svg width="42" height="42" viewBox="0 0 42 42" fill="none" xmlns="http://www.w3.org/2000/svg">
<path d="M29.5181 31.1194H19.6219C19.0311 31.1419 18.4425 31.0362 17.8965 30.8097C17.3505 30.5831 16.86 30.241 16.4587 29.8069C15.0944 28.3136 13.9698 26.6178 13.125 24.78C11.4187 21.3675 9.79125 17.9288 8.11125 14.5163C7.59937 13.4663 7.035 12.4688 6.43125 11.4713C5.56869 9.77149 4.25097 8.34471 2.625 7.35001H7.31063C10.3892 7.38034 13.4608 7.64801 16.4981 8.15063C18.3513 8.43069 20.0974 9.1963 21.559 10.3697C23.0205 11.543 24.1454 13.0824 24.8194 14.8313C26.0223 17.971 26.9747 21.2011 27.6675 24.4913C28.0595 26.7573 28.6795 28.978 29.5181 31.1194ZM36.8813 34.6238C35.9675 34.5687 35.1034 34.1896 34.4442 33.5544C33.785 32.9193 33.3739 32.0698 33.285 31.1588C33.0988 29.0204 33.0375 26.873 33.1012 24.7275C33.0979 21.3953 32.8302 18.0686 32.3006 14.7788C32.2035 13.8157 31.8246 12.9026 31.2113 12.1538H34.6894C35.3981 12.1538 35.6475 12.6394 35.8575 13.1775C36.3484 14.5474 36.6487 15.9783 36.75 17.43C37.1306 21 37.1569 24.5831 37.1831 28.1663C37.1567 28.669 37.1567 29.1729 37.1831 29.6756C37.3013 30.6994 37.7081 31.1194 38.7188 31.0931C39.375 31.0931 39.375 31.0144 39.375 31.0144V34.545C38.5492 34.6631 37.7129 34.6895 36.8813 34.6238Z" fill="white"/>
</svg>
