<svg width="42" height="42" viewBox="0 0 42 42" fill="none" xmlns="http://www.w3.org/2000/svg">
<path d="M7.875 36.75C7.14583 36.75 6.52633 36.4945 6.0165 35.9835C5.5055 35.4737 5.25 34.8542 5.25 34.125V30.8L12.25 24.5875V36.75H7.875ZM14 36.75V29.75H28V36.75H14ZM29.75 36.75V22.4L22.2688 15.75L27.5625 11.0688L35.875 18.4625C36.1667 18.725 36.3854 19.0237 36.5312 19.3585C36.6771 19.6945 36.75 20.0521 36.75 20.4313V34.125C36.75 34.8542 36.4945 35.4737 35.9835 35.9835C35.4737 36.4945 34.8542 36.75 34.125 36.75H29.75ZM5.25 28.4375V20.4313C5.25 20.0521 5.32292 19.6875 5.46875 19.3375C5.61458 18.9875 5.83333 18.6958 6.125 18.4625L19.25 6.82501C19.4833 6.59168 19.7534 6.42368 20.0603 6.32101C20.3659 6.21951 20.6792 6.16876 21 6.16876C21.3208 6.16876 21.6347 6.21951 21.9415 6.32101C22.2472 6.42368 22.5167 6.59168 22.75 6.82501L26.25 9.93126L5.25 28.4375Z" fill="white"/>
</svg>
