<svg width="41" height="41" viewBox="0 0 41 41" fill="none" xmlns="http://www.w3.org/2000/svg">
<path d="M5.125 10.25H35.875V30.75H5.125V10.25ZM20.5 15.375C21.8592 15.375 23.1628 15.915 24.1239 16.8761C25.085 17.8372 25.625 19.1408 25.625 20.5C25.625 21.8592 25.085 23.1628 24.1239 24.1239C23.1628 25.085 21.8592 25.625 20.5 25.625C19.1408 25.625 17.8372 25.085 16.8761 24.1239C15.915 23.1628 15.375 21.8592 15.375 20.5C15.375 19.1408 15.915 17.8372 16.8761 16.8761C17.8372 15.915 19.1408 15.375 20.5 15.375ZM11.9583 13.6667C11.9583 14.5728 11.5984 15.4419 10.9576 16.0826C10.3169 16.7234 9.44782 17.0833 8.54167 17.0833V23.9167C9.44782 23.9167 10.3169 24.2766 10.9576 24.9174C11.5984 25.5581 11.9583 26.4272 11.9583 27.3333H29.0417C29.0417 26.4272 29.4016 25.5581 30.0424 24.9174C30.6831 24.2766 31.5522 23.9167 32.4583 23.9167V17.0833C31.5522 17.0833 30.6831 16.7234 30.0424 16.0826C29.4016 15.4419 29.0417 14.5728 29.0417 13.6667H11.9583Z" fill="#8A8A8A"/>
</svg>
