<svg width="40" height="27" viewBox="0 0 40 27" fill="none" xmlns="http://www.w3.org/2000/svg">
<path d="M0.476 0.799998H6.344C8.384 0.799998 9.872 1.28 10.808 2.24C11.744 3.176 12.212 4.628 12.212 6.596V8.144C12.212 10.76 11.348 12.416 9.62 13.112V13.184C10.58 13.472 11.252 14.06 11.636 14.948C12.044 15.836 12.248 17.024 12.248 18.512V22.94C12.248 23.66 12.272 24.248 12.32 24.704C12.368 25.136 12.488 25.568 12.68 26H8.648C8.504 25.592 8.408 25.208 8.36 24.848C8.312 24.488 8.288 23.84 8.288 22.904V18.296C8.288 17.144 8.096 16.34 7.712 15.884C7.352 15.428 6.716 15.2 5.804 15.2H4.436V26H0.476V0.799998ZM5.876 11.6C6.668 11.6 7.256 11.396 7.64 10.988C8.048 10.58 8.252 9.896 8.252 8.936V6.992C8.252 6.08 8.084 5.42 7.748 5.012C7.436 4.604 6.932 4.4 6.236 4.4H4.436V11.6H5.876ZM20.6115 26.36C18.6915 26.36 17.2275 25.82 16.2195 24.74C15.2115 23.636 14.7075 22.064 14.7075 20.024V6.776C14.7075 4.736 15.2115 3.176 16.2195 2.096C17.2275 0.991999 18.6915 0.439999 20.6115 0.439999C22.5315 0.439999 23.9955 0.991999 25.0035 2.096C26.0115 3.176 26.5155 4.736 26.5155 6.776V8.936H22.7715V6.524C22.7715 4.868 22.0875 4.04 20.7195 4.04C19.3515 4.04 18.6675 4.868 18.6675 6.524V20.312C18.6675 21.944 19.3515 22.76 20.7195 22.76C22.0875 22.76 22.7715 21.944 22.7715 20.312V15.38H20.7915V11.78H26.5155V20.024C26.5155 22.064 26.0115 23.636 25.0035 24.74C23.9955 25.82 22.5315 26.36 20.6115 26.36ZM29.058 0.799998H39.534V4.4H33.018V11.42H38.13V15.02H33.018V26H29.058V0.799998Z" fill="white"/>
</svg>
